<?xml version="1.0" encoding="UTF-8"?>
<svg id="Layer_1" data-name="Layer 1" xmlns="http://www.w3.org/2000/svg" viewBox="0 0 4000 4000">
  <defs>
    <style>
      .cls-1 {
        fill: #f9d6b6;
      }

      .cls-2 {
        fill: #e2b28a;
      }

      .cls-3 {
        fill: #5e3519;
      }

      .cls-4 {
        opacity: .3;
      }

      .cls-5 {
        fill: #fff;
      }

      .cls-6 {
        opacity: .25;
      }

      .cls-7 {
        opacity: .4;
      }

      .cls-8 {
        fill: #62c84f;
      }

      .cls-9 {
        fill: #b24528;
      }

      .cls-10 {
        opacity: .2;
      }

      .cls-11 {
        fill: #f28475;
      }

      .cls-12 {
        fill: #591224;
      }

      .cls-13 {
        fill: #d4613c;
      }

      .cls-14 {
        fill: #f44a4a;
      }
    </style>
  </defs>
  <g>
    <path class="cls-13" d="M1438.82,2072c-130.71,3.09-420.58-129.95-460.19-382.35-39.25-250.16,217.15-406.27,222.32-541.02,2.9-75.6-61.81-115.91-127.59-111.31-47.59,3.33-103.52,3.62-127.98-45.03-57.27-113.86,127.29-210.48,277.93-152.79,183.48,70.26,262.37,298.02,72.15,512.14-92.17,103.76-158.14,198.71-152.94,299.64,4.76,92.32,96.15,258.11,305.32,285.41"/>
    <path class="cls-13" d="M1438.81,2071.99c-.33.02-.69.01-1,0-131.19,2.41-419.67-130.62-459.16-382.34l-.03-.03c-1.83-11.72-3.03-23.19-3.59-34.57-.49-9.22-.58-18.3-.31-27.2.38-11.9,1.35-23.59,2.91-35.06.41-2.88.82-5.75,1.29-8.58.99-6.12,2.16-12.2,3.44-18.17,1.31-6,2.81-11.93,4.37-17.81,1.82-6.7,3.84-13.32,5.99-19.93,1.08-3.28,2.19-6.53,3.35-9.78,1.76-4.87,3.58-9.68,5.49-14.47.65-1.62,1.28-3.2,1.93-4.77,1.99-4.77,4.04-9.49,6.14-14.15,1.42-3.13,2.82-6.23,4.3-9.31,1.48-3.08,2.99-6.13,4.52-9.21,3.79-7.62,7.8-15.14,11.93-22.55,1.62-2.95,3.31-5.9,4.99-8.85,1.71-2.93,3.42-5.85,5.16-8.75,65.7-110.27,157.35-197.84,160.43-277.83,2.83-74.35-59.71-114.54-124.27-111.5-1.1.07-2.21.13-3.31.2l-.03-.03c-2.4.17-4.8.34-7.23.48l-3.64.22c-1.24.1-2.48.15-3.7.22-43.97,1.99-91.4-2.18-113.45-45.93-.6-1.21-1.2-2.42-1.74-3.64-2.51-5.47-4.47-10.92-5.92-16.29-.49-1.8-.9-3.57-1.26-5.35-.45-2.38-.83-4.71-1.14-7.08-.12-1.16-.22-2.34-.34-3.5-.13-1.74-.21-3.48-.28-5.22l.03-.03c-.02-1.74-.01-3.46.08-5.16.16-3.42.51-6.81,1.09-10.17.18-1.09.4-2.21.64-3.3.48-2.24,1.04-4.41,1.66-6.58s1.38-4.32,2.17-6.44c.82-2.1,1.69-4.2,2.65-6.28,1.45-3.16,3.09-6.25,4.94-9.26.63-1.01,1.24-1.98,1.87-2.99.66-.98,1.3-1.99,1.99-2.94.64-.95,1.33-1.91,1.99-2.83,1.18-1.62,2.44-3.22,3.73-4.79l.03-.03c48.3-58.85,164.69-89.62,265.8-50.93,183.48,70.29,262.37,298.02,72.14,512.15-92.17,103.75-158.16,198.69-152.94,299.65,3.61,70.51,57.81,183.91,176.43,245.68,36.68,19.1,79.5,33.29,128.89,39.73l-8.94,134.08-.09,1.22Z"/>
    <path class="cls-13" d="M934.66,951.23c.09,1.74.17,3.48.3,5.22.11,1.15.22,2.33.33,3.48.3,2.37.68,4.7,1.14,7.06.37,1.81.77,3.59,1.26,5.36,1.45,5.39,3.43,10.84,5.91,16.32.55,1.21,1.14,2.43,1.76,3.6,22.04,43.78,69.47,47.96,113.44,45.97,1.23-.07,2.45-.15,3.68-.22l3.64-.22c2.45-.15,4.83-.33,7.24-.51l.04.04c1.11-.07,2.22-.14,3.28-.21,64.59-3.03,127.11,37.16,124.3,111.54-3.09,79.97-94.74,167.55-160.46,277.8-1.7,2.9-3.45,5.84-5.15,8.78-1.66,2.94-3.37,5.88-4.99,8.81-4.12,7.44-8.11,14.96-11.91,22.56-1.54,3.09-3.04,6.15-4.54,9.24-1.46,3.05-2.84,6.18-4.3,9.31-2.09,4.65-4.14,9.39-6.11,14.16-.67,1.56-1.3,3.13-1.93,4.77-1.93,4.77-3.74,9.57-5.51,14.46-1.14,3.24-2.24,6.52-3.34,9.8-2.16,6.6-4.16,13.23-6,19.9-1.54,5.91-3.05,11.81-4.39,17.83-1.26,5.98-2.45,12.03-3.43,18.16-.48,2.83-.88,5.69-1.27,8.59-1.59,11.46-2.54,23.13-2.93,35.03-.27,8.92-.18,18,.31,27.22.55,11.4,1.77,22.86,3.6,34.58l.04.04c2.45,15.63,5.87,30.79,10.15,45.49.04.12.05.24.09.31,64.69,222.01,325.93,338.78,448.91,336.5.32.03.67.02.99.01l.09-1.23,8.95-134.07c-49.39-6.46-92.22-20.63-128.88-39.72-21.67-11.3-41.16-24.28-58.62-38.43-78.09-63.34-114.87-149.64-117.83-207.25-5.21-100.95,60.8-195.91,152.97-299.67,190.21-214.13,111.33-441.87-72.16-512.16-101.11-38.66-217.49-7.91-265.78,50.95l-.04.04c-1.3,1.58-2.57,3.16-3.71,4.78-.69.93-1.37,1.9-2.02,2.83-.69.97-1.29,1.98-1.98,2.95-.65,1.01-1.25,1.98-1.86,2.98-1.86,3.02-3.48,6.12-4.94,9.29-.97,2.05-1.83,4.17-2.64,6.25-.81,2.12-1.55,4.28-2.16,6.44-.61,2.2-1.19,4.35-1.68,6.58-.25,1.12-.45,2.23-.62,3.31-.58,3.34-.93,6.76-1.07,10.17-.11,1.71-.11,3.41-.1,5.15l-.04.04Z"/>
    <path class="cls-13" d="M934.66,951.23c.09,1.74.17,3.48.3,5.22.11,1.15.22,2.33.33,3.48.3,2.37.68,4.7,1.14,7.06.37,1.81.77,3.59,1.26,5.36,1.45,5.39,3.43,10.84,5.91,16.32.55,1.21,1.14,2.43,1.76,3.6,22.04,43.78,69.47,47.96,113.44,45.97,1.23-.07,2.45-.15,3.68-.22l3.64-.22c2.45-.15,4.83-.33,7.24-.51l.04.04c1.11-.07,2.22-.14,3.28-.21,64.59-3.03,127.11,37.16,124.3,111.54-1.21,31.3-15.98,63.8-37.5,98.35-33.37,53.69-82.97,112.38-122.95,179.45-1.7,2.9-3.45,5.84-5.15,8.78-1.66,2.94-3.37,5.88-4.99,8.81-4.12,7.44-8.11,14.96-11.91,22.56-1.54,3.09-3.04,6.15-4.54,9.24-1.46,3.05-2.84,6.18-4.3,9.31-2.09,4.65-4.14,9.39-6.11,14.16-.67,1.56-1.3,3.13-1.93,4.77-1.93,4.77-3.74,9.57-5.51,14.46-1.14,3.24-2.24,6.52-3.34,9.8-2.16,6.6-4.16,13.23-6,19.9-1.54,5.91-3.05,11.81-4.39,17.83-1.26,5.98-2.45,12.03-3.43,18.16-.48,2.83-.88,5.69-1.27,8.59-1.59,11.46-2.54,23.13-2.93,35.03-.27,8.92-.18,18,.31,27.22.55,11.4,1.77,22.86,3.6,34.58l.04.04c2.45,15.63,5.87,30.79,10.15,45.49.04.12.05.24.09.31,64.69,222.01,325.93,338.78,448.91,336.5.32.03.67.02.99.01l.09-1.23,8.95-134.07c-49.39-6.46-92.22-20.63-128.88-39.72-21.67-11.3-41.16-24.28-58.63-38.43-78.09-63.34-114.87-149.64-117.83-207.25-5.21-100.95,60.8-195.91,152.97-299.67,190.21-214.13,111.33-441.87-72.16-512.16-101.11-38.66-217.49-7.91-265.78,50.95l-.04.04c-1.3,1.58-2.57,3.16-3.71,4.78-.69.93-1.37,1.9-2.02,2.83-.69.97-1.29,1.98-1.98,2.95-.65,1.01-1.25,1.98-1.86,2.98-1.86,3.02-3.48,6.12-4.94,9.29-.97,2.05-1.83,4.17-2.64,6.25-.81,2.12-1.55,4.28-2.16,6.44-.61,2.2-1.19,4.35-1.68,6.58-.25,1.12-.45,2.23-.62,3.31-.58,3.34-.93,6.76-1.07,10.17-.11,1.71-.11,3.41-.1,5.15l-.04.04Z"/>
    <path class="cls-9" d="M934.66,951.23c.09,1.74.17,3.48.3,5.22.11,1.15.22,2.33.33,3.48.3,2.37.68,4.7,1.14,7.06.37,1.81.77,3.59,1.26,5.36,1.45,5.39,3.43,10.84,5.91,16.32.55,1.21,1.14,2.43,1.76,3.6,22.04,43.78,69.47,47.96,113.44,45.97,1.23-.07,2.45-.15,3.68-.22l3.64-.22c2.45-.15,4.83-.33,7.24-.51l.04.04c1.11-.07,2.22-.14,3.28-.21,64.59-3.03,127.11,37.16,124.3,111.54-1.21,31.3-15.98,63.8-37.5,98.35,55.79-45.39,132.36-174.64,60.39-244.76-77.3-75.25-231.39,50.84-289.2-51.01Z"/>
    <path class="cls-9" d="M988.91,1735.49c64.69,222.01,325.93,338.78,448.91,336.5.32.03.67.02.99.01l.09-1.23,8.95-134.07c-49.39-6.46-92.22-20.63-128.88-39.72-21.67-11.3-41.16-24.28-58.62-38.43-81.99,26.25-220.06,41.85-271.43-123.06Z"/>
    <g class="cls-4">
      <path class="cls-5" d="M1349.23,1279.82c92.13-180.34,11.75-351.19-142.74-410.37-101.11-38.69-217.5-7.91-265.8,50.93l-.03.03c-.36.46-.78.93-1.14,1.4.26-.76.52-1.53.81-2.26.82-2.1,1.69-4.2,2.65-6.28,1.45-3.16,3.09-6.25,4.94-9.26.63-1.01,1.24-1.98,1.87-2.99.66-.98,1.3-1.99,1.99-2.94.64-.95,1.33-1.91,1.99-2.83,1.18-1.62,2.44-3.22,3.73-4.79l.03-.03c48.3-58.85,164.69-89.62,265.8-50.93,163.05,62.44,243.48,249.24,125.91,440.33Z"/>
    </g>
    <path class="cls-12" d="M1434.65,2088.98c-63.71,0-170.21-30.05-269.68-98.39-79.9-54.9-179.98-151.22-203.06-298.31-24.91-158.74,64.31-281.63,136-380.37,45.23-62.3,84.29-116.1,86.12-163.93,1.01-26.36-7.6-49.16-24.91-65.93-20.34-19.71-51.95-30.13-84.58-27.84-39.5,2.77-113,7.9-144.29-54.31-21.52-42.79-14.7-88.51,18.71-125.46,52.21-57.73,171.37-92.49,280.4-50.75,94.36,36.13,161.56,110.46,184.36,203.91,26.72,109.47-10.79,228.54-105.61,335.28-80.27,90.36-153.83,187.72-148.69,287.53,4.84,94.02,100.55,244.69,290.61,269.5,9.27,1.21,15.81,9.7,14.59,18.98-1.21,9.27-9.7,15.81-18.98,14.59-122.19-15.95-197.86-76.2-239.84-123.93-55.66-63.3-77.92-133.14-80.2-177.39-5.77-111.98,72.14-216.01,157.19-311.75,87.22-98.18,122.04-206.42,98.04-304.77-20.14-82.5-79.76-148.22-163.59-180.32-94.21-36.08-199.58-6.37-243.18,41.84-16.89,18.67-32.95,49.02-13.57,87.53,17.62,35.04,55.8,39.64,111.68,35.75,42.65-3.01,82.96,10.6,110.5,37.3,24.41,23.65,36.57,55.31,35.18,91.54-2.23,58.11-44.09,115.77-92.56,182.53-71.57,98.58-152.69,210.31-129.95,355.23,38.61,246.09,321.99,368.09,439.26,368.09,1.3,0,2.55-.01,3.81-.04,9.46-.21,17.1,7.17,17.32,16.52.22,9.35-7.17,17.1-16.52,17.32-1.5.04-3.02.05-4.57.05Z"/>
  </g>
  <g>
    <g>
      <path class="cls-1" d="M1292.71,3008.78c-73.08,41.76-117.52,89.08-78.62,152.6,42.05,64.4,65.64,148.06,75.88,245.65,2.55,24.31,18.67,45.69,42.13,52.57,24.89,7.29,52.32-1.49,60.94-27.37,21.16,35.33,82.22,53.2,106.4,29.02,22.91,16.22,53.2,9.67,67.71-14.51,111.24,14.51,4.32-187.02,23.39-240.34l-297.83-197.61Z"/>
      <path class="cls-2" d="M1579.97,3214.41c-58.99,16.02-122.66,14.35-180.73-4.74-19.9-6.54-41.66-15.08-60.97-6.95-25.34,10.67-31.79,44.39-26.34,71.34,5.45,26.95,18.99,52.34,19.83,79.82.43,14.15-2.55,28.17-3.29,42.31-.74,14.14,1.11,29.23,9.87,40.35,8.75,11.12,26.06,16.33,37.61,8.14-15.47,21.77-51.5,24.43-70,5.17-15.43-16.06-17.01-40.44-18.88-62.63-5.04-59.89-18.52-119.07-39.9-175.25-3.1-8.15-6.43-16.35-11.81-23.21-3.77-4.82-8.44-8.84-12.54-13.38-24.74-27.44-24.42-71.5-5.9-103.46,18.52-31.96,51.82-53.03,86.66-65.3,45.38,31.53,90.75,63.06,136.13,94.59,9.11,6.33,18.22,12.66,27.32,18.99,40.5,28.14,81.2,56.45,116.53,90.85"/>
      <path class="cls-3" d="M1467.84,3487.77c-3.65,0-7.41-.23-11.28-.71-22.88-2.83-45.46-13.59-61.63-28.57-15.81,16.73-41.29,23.49-67.16,15.9-28.98-8.48-49.84-34.3-53.14-65.76-10.62-101.28-34.64-179.4-73.45-238.83-15.72-25.66-20.45-50.64-14.3-74.63,8.96-34.93,40.16-66.64,98.18-99.79,5.07-2.88,11.32-2.68,16.18.54l297.83,197.61c5.91,3.92,8.38,11.37,6,18.05-5.17,14.46,4.05,52.89,12.18,86.79,13.98,58.28,28.43,118.55,1.69,148.27-10.32,11.47-25.14,16.96-44.31,16.19-9.08,11.02-21.29,18.52-35.2,21.44-13.23,2.79-26.69,1.14-38.87-4.59-9.08,5.32-20.23,8.09-32.72,8.09ZM1393.05,3416.8c5.38,0,10.42,2.82,13.23,7.5,9.7,16.19,31.93,29.41,54.07,32.15,12.48,1.54,22.77-.69,28.2-6.11,5.31-5.31,13.69-6.02,19.82-1.69,7.46,5.29,16.23,7.2,24.72,5.44,8.62-1.81,16.02-7.24,20.85-15.29,3.16-5.26,9.13-8.14,15.23-7.36,13.05,1.69,22.08-.13,26.85-5.43,15.89-17.67,1.64-77.07-8.76-120.44-8.77-36.58-16.55-68.98-13.94-92.11l-281.12-186.51c-44.44,26.54-69.15,51.41-75.43,75.89-4.06,15.82-.62,32.33,10.49,50.48,41.31,63.25,66.92,145.84,78.06,252.09,1.96,18.67,14.47,34.49,31.12,39.37,15.86,4.63,35.77,1.17,41.98-17.44,1.9-5.72,6.97-9.8,12.96-10.46.56-.06,1.12-.09,1.68-.09Z"/>
      <path class="cls-3" d="M1375.98,3435.33c5.71-29.17,8.6-59.13,2.73-88.62-.57-2.69,1.17-5.33,3.86-5.87,2.29-.46,4.53.76,5.46,2.8,6.62,14.56,11.05,30.21,13.93,46.07,2.89,15.9,4.27,32.04,4.78,48.12-.34,22.82-34.09,20.13-30.76-2.49h0Z"/>
      <path class="cls-3" d="M1484.6,3457.05c11.12-26.24,15.32-56.5,14.86-87.08-.05-2.7,2.1-4.93,4.8-4.97,2.32-.04,4.3,1.56,4.83,3.72,7.48,30.53,10.92,63.32,5.19,96.71-4.64,22.71-37.61,13.44-29.69-8.38h0Z"/>
      <path class="cls-3" d="M1549.76,3449c8.16-28.09,11.35-58.19,9.04-88.63-.15-1.99,1.34-3.73,3.33-3.88,1.7-.13,3.21.94,3.71,2.49,9.61,29.78,14.08,61.99,12.58,94.53-1.72,21.72-33.71,16.71-28.66-4.52h0Z"/>
    </g>
    <g>
      <path class="cls-1" d="M1190.62,2475.21c36.66,75.77,46.55,139.92-21.45,170.31-71.1,29.33-137.86,84.99-201.49,159.69-15.85,18.61-41.23,27.13-64.47,19.53-24.65-8.06-42.31-30.82-34.79-57.04-37.43,17.17-97.9-2.62-104.17-36.24-28.06.42-49.35-22.11-47.64-50.26-99.95-50.94,102.2-156.69,116.62-211.45l357.38,5.44Z"/>
      <path class="cls-2" d="M837.42,2482.36c39.59,46.57,93.05,81.2,151.74,98.3,20.11,5.86,42.89,11.13,54.21,28.75,14.86,23.13,1.12,54.59-18.62,73.73-19.73,19.14-45.26,32.43-61.5,54.62-8.36,11.43-13.83,24.68-21.21,36.76-7.38,12.08-17.45,23.48-30.96,27.7-13.51,4.22-30.72-1.27-35.62-14.55.45,26.7,28.66,49.27,54.81,43.85,21.81-4.52,36.9-23.73,50.99-40.98,38.03-46.55,82.6-87.73,132-121.98,7.16-4.97,14.55-9.85,22.87-12.47,5.83-1.84,11.96-2.52,17.91-3.95,35.92-8.64,60.58-45.16,63.37-81.99,2.8-36.84-12.75-73.04-34.55-102.86-55.26.35-110.51.69-165.77,1.04-11.09.07-22.18.14-33.27.21-49.31.31-98.89.64-147.48,9.03"/>
      <path class="cls-3" d="M920.82,2842.97c-7.51,0-15.06-1.17-22.4-3.57-25.62-8.37-42.83-28.36-46.4-51.1-21.8,3.22-46.51-.67-66.99-11.29-15.27-7.91-26.33-18.65-32.12-30.96-13.29-2.17-25.31-8.43-34.65-18.2-9.82-10.28-15.65-23.36-16.91-37.59-16.17-10.22-25.37-23.11-27.39-38.41-5.25-39.63,40.76-81.16,85.24-121.33,25.88-23.36,55.21-49.85,59.12-64.69,1.81-6.86,8.11-11.5,15.15-11.49l357.38,5.44c5.83.09,11.11,3.46,13.65,8.71,29.11,60.15,36.91,103.95,24.55,137.82-8.49,23.27-26.53,41.2-53.59,53.29-66.02,27.25-130.01,78.1-196.04,155.61-15.26,17.91-36.77,27.76-58.6,27.76ZM868.42,2752.28c3.62,0,7.2,1.28,10.06,3.73,4.57,3.93,6.43,10.16,4.77,15.95-5.41,18.86,9.04,32.98,24.75,38.12,16.5,5.38,35.77-.57,47.94-14.87,69.28-81.33,137.1-134.97,207.35-163.95,19.02-8.5,31.19-20.18,36.79-35.53,8.66-23.73,2.35-58.22-19.3-105.24l-337.32-5.14c-10.93,20.55-35.66,42.87-63.58,68.08-33.11,29.89-78.45,70.83-75.33,94.38.94,7.07,7.35,13.69,19.08,19.66,5.47,2.79,8.77,8.55,8.39,14.68-.57,9.37,2.47,18.03,8.55,24.4,5.99,6.27,14.37,9.86,23.46,9.5h.24c7.41,0,13.79,5.28,15.16,12.6,1.41,7.54,8.63,15.19,19.8,20.98,19.8,10.26,45.61,11.93,62.77,4.06,2.06-.94,4.25-1.41,6.43-1.41Z"/>
      <path class="cls-3" d="M854.01,2764.52c18.92-25.75,41.13-50.39,68.65-67.05,2.34-1.41,5.37-.66,6.78,1.68,1.22,2.02.82,4.57-.82,6.13-21.53,21-36.08,47.35-47.87,74.64-10.04,20.55-39.48,3.64-26.73-15.39h0Z"/>
      <path class="cls-3" d="M749.64,2726.53c14.16-30.77,35.53-55.88,58.97-76.82,2.01-1.8,5.1-1.63,6.9.39,1.55,1.73,1.63,4.27.34,6.09-17.67,24.96-31.32,52.3-36.98,80.22-5.79,22.44-38.23,11.51-29.23-9.88h0Z"/>
      <path class="cls-3" d="M703.49,2680.44c17.17-27.68,39.07-51.72,63.83-70.85,1.58-1.22,3.85-.93,5.07.65,1.04,1.35.98,3.2-.04,4.47-19.12,23.8-33.51,50.43-42.66,78.21-7.82,20.33-37.06,6.43-26.2-12.48h0Z"/>
    </g>
    <g>
      <path class="cls-8" d="M2030.97,815.69c-28.71,0-57.27-2.05-85.39-6.24-124.92-18.64-221.27-76.37-271.31-162.58-12.09-20.83-3.8-46.86,18.52-58.14,22.32-11.28,50.21-3.54,62.3,17.29,36.12,62.23,108.92,104.4,204.99,118.73,149,22.23,313.43-27.38,429.12-129.47,18.45-16.28,47.54-15.51,64.97,1.7,17.44,17.21,16.62,44.36-1.82,60.63-114.35,100.89-269.83,158.08-421.39,158.08Z"/>
      <path class="cls-3" d="M2030.97,829.81c-29.57,0-59-2.15-87.48-6.4-129.26-19.28-229.21-79.46-281.44-169.46-7.67-13.2-9.52-28.46-5.21-42.98,4.49-15.11,14.99-27.49,29.58-34.86,28.83-14.57,65.13-4.34,80.89,22.8,33.92,58.44,103.12,98.16,194.86,111.84,144.98,21.65,305.04-26.69,417.69-126.09,23.88-21.06,61.66-20.06,84.25,2.24,11.23,11.08,17.17,25.65,16.74,41.03-.43,15.44-7.23,29.74-19.14,40.25-116.41,102.71-273.4,161.61-430.73,161.61ZM1714.74,597.64c-5.27,0-10.61,1.19-15.58,3.7-7.57,3.83-12.99,10.11-15.23,17.68-2.07,6.98-1.16,14.35,2.55,20.76,47.84,82.42,140.59,137.71,261.18,155.69,27.1,4.04,55.13,6.09,83.31,6.09,150.54,0,300.72-56.33,412.04-154.55,5.98-5.27,9.39-12.32,9.6-19.85.21-7.46-2.76-14.61-8.35-20.14-12.23-12.07-32.73-12.61-45.7-1.16-118.73,104.76-287.53,155.65-440.55,132.85-100.41-14.98-176.81-59.59-215.13-125.61-5.73-9.88-16.73-15.47-28.13-15.47Z"/>
      <g>
        <path class="cls-13" d="M2260.03,2235.72c96.63,394.3,492.73,385.35,508.78,507.48,13.39,80.09-7.58,203.26-99.73,217.78-260.92,41.13-660.5-166.28-662.05-650.68"/>
        <path class="cls-13" d="M2260.03,2235.72l-155.68,45.89-97.32,28.69c1.17,367.25,231.13,575.29,455.98,636.52,71.74,19.54,142.94,24.13,206.06,14.18,92.16-14.55,113.12-137.71,99.75-217.79-16.06-122.14-412.17-113.18-508.79-507.49Z"/>
        <path class="cls-13" d="M2260.03,2235.72l-155.68,45.89-97.32,28.69c1.17,367.25,231.13,575.29,455.98,636.52,71.74,19.54,142.94,24.13,206.06,14.18,6.71-1.06,13.06-2.71,19.03-4.85t.06,0c75.97-27.47,93.06-138.71,80.67-212.93-1.42-10.83-5.84-20.65-12.8-29.81-71.24-93.92-407.95-118.39-495.99-477.68Z"/>
        <path class="cls-13" d="M2260.03,2235.72l-82.75,24.4-72.94,21.49-97.32,28.69c1.17,367.25,231.13,575.29,455.98,636.52,71.74,19.54,142.94,24.13,206.06,14.18,6.71-1.06,13.06-2.71,19.03-4.85t.06,0c75.97-27.47,93.06-138.71,80.67-212.93-1.42-10.83-5.84-20.65-12.8-29.81-53.61-70.66-257.51-102.02-392.67-266.27-44.5-54.04-81.54-122.47-103.32-211.41Z"/>
        <path class="cls-13" d="M2463.01,2946.82c-224.83-61.23-454.79-269.25-455.96-636.52l97.29-28.67,47.37-13.97,25.57-7.54,82.74-24.38c21.77,88.93,58.84,157.37,103.33,211.39,71.58,86.97,162.44,136.7,240.03,174.72,68.93,33.78,127.42,58.3,152.65,91.56,6.94,9.16,11.37,18.98,12.79,29.8,12.4,74.23-4.7,185.48-80.65,212.93t-.06,0c-5.98,2.14-12.32,3.8-19.02,4.84-63.14,9.97-134.33,5.36-206.07-14.17Z"/>
        <path class="cls-13" d="M2463.01,2946.81c-224.82-61.23-454.79-269.25-455.95-636.51l97.29-28.68,47.36-13.96,10.89-3.22,14.7-4.34,82.75-24.37c21.75,88.94,58.82,157.36,103.32,211.39,70.54,85.71,159.87,135.28,236.68,173.08,1.11.56,2.23,1.12,3.34,1.65,68.94,33.76,127.42,58.29,152.64,91.55,6.94,9.16,11.38,18.96,12.8,29.8,12.4,74.24-4.71,185.49-80.67,212.93t-.06,0c-5.95,2.13-12.31,3.79-19.03,4.86-63.12,9.95-134.31,5.35-206.07-14.18Z"/>
        <path class="cls-9" d="M2617.4,2841.98c-26.13,114.6,37.19,119.12,70.7,114.17t.06,0c75.97-27.47,93.06-138.71,80.67-212.93-1.42-10.83-5.84-20.65-12.8-29.81-42.3-10.7-114.44,22.48-138.62,128.58Z"/>
        <path class="cls-9" d="M2104.35,2281.61l-97.32,28.69c.61,190.8,62.97,338.63,154.29,445.22,125.25,146.2,297.78,197.81,301.69,191.3,3.5-5.82-131.9-50.5-209.7-185.05-42.47-73.45-34.86-116.75-80.7-277.94-24.97-87.79-50.75-157.67-68.28-202.21Z"/>
        <path class="cls-3" d="M2601.06,2980.7c-130.88,0-271.79-53.27-381.82-147.02-102.94-87.71-225.83-249.69-226.71-523.33-.02-8.02,6.45-14.53,14.46-14.56h.05c7.99,0,14.49,6.46,14.51,14.46.84,262.62,118.2,417.58,216.51,501.33,123.81,105.48,288.11,157.24,428.77,135.06,23.95-3.77,43.81-16.39,59.01-37.49,31.4-43.58,37.02-113.55,28.66-163.57-.03-.17-.05-.33-.08-.5-4.83-36.73-59.19-62.88-128.01-95.99-126.4-60.8-317.43-152.69-380.47-409.93-1.91-7.78,2.85-15.64,10.64-17.54,7.8-1.94,15.64,2.86,17.54,10.64,59.78,243.94,236.11,328.76,364.87,390.69,76.61,36.85,137.14,65.96,144.17,118.09,8.62,51.86,4.93,131.35-33.78,185.07-19.9,27.62-46.16,44.17-78.04,49.2-22.92,3.61-46.45,5.38-70.29,5.38Z"/>
        <g>
          <g>
            <path class="cls-1" d="M2665.81,2801.99c11.9-22.93,22.81-34.2,31.77-43.38,39.6-40.59,78.01-48.56,130.91-84.27,20.2-13.64,53.29-9.32,56.93,19.42,4.84,38.11-42.22,56.02-47.9,69.8,49.41-.34,183.67,17.19,155.74,80.63-17.41,39.55-84.42,16.06-107.69,16.19,24.5,6.82,94.24,44.29,61.39,88.79-29.79,40.34-78.23-11.38-105.54-16.33,34.06,18.83,54.08,59.08,23.91,82.55-28.24,21.97-70.38-16.22-89.32-36.34-5.11-5.43-145.96-3.41-134.63-82.19,0,0,1.69-31.18,8.05-54.89,5.8-21.59,16.37-39.97,16.37-39.97Z"/>
            <path class="cls-2" d="M2824.07,2784.74c-14.7,21.01-6.97,40.78-60.61,58.6-23.18,7.7,17.1,14.56-20,94.33,4.86,3,35.38-3.94,45.42-19.95,12.71-20.26,9.97-41.67,18.86-54.95,7.86-11.74,47.26-41.92,16.34-78.03Z"/>
            <path class="cls-2" d="M2772.7,2741.16s-84.46,41.4-101.57,114.04c-18.62,79.05,44.56,83.48,44.56,83.48,0,0-63.29-44.1,57-197.52Z"/>
            <path class="cls-3" d="M2665.81,2801.99c8.81-30.67,30.38-57.46,54.81-77.73,24.99-19.49,53.58-32.52,79.82-48.96,15.03-8.76,28.84-21.29,46.99-22.4,36.96-4.24,61.81,29.51,49.14,64.09-6.49,17.9-20.69,30.06-34.56,40.49-4.52,3.25-10.19,7.72-13.38,10.67,0,0-11.19-16.59-11.19-16.59,51.77.39,195.04,15.63,167.96,94.67-19.51,48.65-81,29.86-119.76,26.17,0,0,3.16-23.58,3.16-23.58,11.49,3.42,21.02,8.07,30.64,13.53,24.54,14.26,52.78,38.56,47.41,71.05-4.57,26.4-30.93,48.57-58.08,42.14-25.79-4.35-45.89-23.52-69.49-30.87,0,0,7.95-22.34,7.95-22.33,24.69,12.56,48.07,37.47,46.83,68.18-1.42,22.88-20.37,43.29-43.05,45.6-33.87,3.46-68.06-29.31-83.58-46.46.73.74,2.7,1.61,3.09,1.71-41.47-7.49-90.51-11.13-120.32-45.24-11.57-13.29-15.38-33.23-8.82-49.26,1.05,33.55,29.82,49.05,59.26,56.17,14.55,3.84,29.72,6.5,45.21,8.29,6.9.96,25.89,2.18,32.43,3.97,2.98.79,5.9,2.47,8.01,4.79,3.29,3.34,6.72,6.73,10.19,9.86,15.18,13.02,32.43,27.83,51.49,27.51,8.27-.61,17.64-10.15,18.01-18.99.83-18.6-14.62-34.84-30.36-45.1-6-3.19-8.2-10.77-4.75-16.64,6.67-11.45,22.26-2.95,30.15.6,13.43,6.68,26.73,15.51,39.83,20.83,8.33,3.43,16.57,5.24,22.67,3.77,12.84-3.12,22.96-20.08,19.19-32.6-8.24-23.71-37.59-39.57-60.35-47.36-13.69-3.72-10.82-23.67,3.16-23.59,25.97,1.16,51.86,10.28,76.61,5.45,5.25-1.1,9.86-2.93,13.24-5.58,3.48-2.65,5.78-5.93,7.62-10.65,8.96-22.48-14.33-34.85-33-42.75-35.19-13.53-74.88-18.7-112.38-19.26-8.43.27-14.54-8.93-11.19-16.59,10.57-20.64,36.91-29.01,44.04-51.01,2.59-8.26,1.81-19.83-6.31-24.25-18.01-9.3-34.16,7.98-49.2,15.96-55.44,30.2-110.94,50.75-149.13,102.31h0Z"/>
            <path class="cls-3" d="M2846.07,2772c-11.92,10.36-20.81,30.75-32.18,43.75-12.06,15.52-30.69,27.08-50.43,27.59,9.21-2.5,17.65-6.8,24.4-12.82,23.37-20.62,22.69-50.42,41.26-75.59,11.69-13.71,30.77,5.45,16.95,17.07h0Z"/>
          </g>
          <path class="cls-3" d="M2879.69,2817.45c21.07,55.39-26.39,132.67-86.69,134.91,12.89-7.53,23.89-15.88,33.52-25.54,28.76-29.8,48.14-67.72,53.17-109.37h0Z"/>
        </g>
      </g>
      <path class="cls-13" d="M2297.46,2285.98l-154.77,116.08c-99.49,41.5-193.7,124.49-285.35,227.31-4.45,271.47-34.68,391.8-219.29,544.63-7.16,5.9-14.51,11.85-22.1,17.85-19.78,15.67-44.98,23.22-70.13,20.7-132.08-13.15-260.01-88.85-254.35-196.26,22.59-143.16,95.08-254.01,110.03-366.89,6.38-48.07-3-96.87-25.88-139.63-53.01-98.91-112.21-194.67-156.7-165.75l62.34-365.83,10.2-59.78c124.64-101.57,255.8-173,391.75-222.48-4.84-275.68,39.71-529.84,203.13-706.12,75.93,45.08,157.72,61.71,246.66,43.53-60.65,130.54-81.88,345.47-94.46,578.93l258.9,673.72Z"/>
      <path class="cls-9" d="M1741.4,1247.89c-29.68,133.58-17.24,272.48-4.3,408.71,2.3,24.26,2.23,53.74-18.38,66.76-13.68,8.64-31.23,6.24-47.37,5.02-30.53-2.3-61.47.86-90.91,9.28,26.89-11.68,53.78-23.36,80.68-35.03,5.88-2.55,12.07-5.36,15.66-10.67,2.27-3.36,3.26-7.4,4.15-11.36,30.32-133.92,2.76-280.44,59.07-405.67"/>
      <path class="cls-9" d="M1638.06,3174c-7.16,5.9-14.51,11.85-22.1,17.85-19.78,15.67-44.98,23.22-70.13,20.7-132.08-13.15-260.01-88.85-254.35-196.26,22.59-143.16,95.08-254.01,110.03-366.89,6.38-48.07-3-96.87-25.88-139.63-53.01-98.91-112.21-194.67-156.7-165.75l62.34-365.83c14.9-14.8,31.58-27.66,50.4-38.01v.14c36.66,65.34,57.26,139.63,59.44,214.55,1.45,50.06-5.13,100.02-4.5,150.03.63,50.06,9.24,101.9,37.72,143.06,28.78,41.55,75.79,69.31,98.71,114.43,34.82,68.58,2.52,151.82-38.21,217.16-40.67,65.29-91.6,130.29-95.33,207.15-4.11,85.36,60.79,168.79,144.51,185.82,28.54,5.8,57.99,4.64,87.1,3.14,5.56-.29,11.32-.73,16.93-1.64Z"/>
      <path class="cls-9" d="M1840.55,2616.48c21.76-61.53,57.91-118.78,108.35-160.2,50.44-41.43,115.68-66.12,180.85-62.39,5.89.34,12.8,1.57,15.36,6.89-56.7,12.63-107.58,44.49-151.37,82.66-43.8,38.17-81.41,82.77-120.45,125.8-6.45,7.11-16.51,14.75-24.54,9.5"/>
      <path class="cls-3" d="M2144.74,2406.95c-80.8,41.65-149.31,102.77-211.83,168.07-20.9,21.86-41.18,44.37-61.32,67.05l4.84-12.39c-2.27,90.07-5.3,181.31-27.41,269.45-23.06,97.41-79.54,179.34-152.03,246.6-19.71,18.1-43.53,38.47-64.47,55.19-9.54,8.14-20.42,15.45-32.12,20.25-23.48,10.48-49.94,10.69-74.83,6.24-22.93-3.27-45.56-8.44-67.72-15.31-65.97-21.04-134.49-58.91-167.59-123.84-11.31-22.71-16.88-49.02-15.01-74.55,15.26-98.05,57.18-186.41,88.93-278.25,19.86-58.28,33.85-119.99,14.24-179.81-9.01-29.62-25.96-56.67-40.8-83.74-23.54-39.36-46.65-82.31-82.18-110.56-9.66-6.5-18.65-11.18-28.54-5.2,0,0-.05.03-.05.03l-1.54.77c-10.09,5.46-22.98-4.21-20.67-15.37,0,0,72.55-425.61,72.55-425.61.61-3.59,2.52-6.67,5.14-8.81,118.09-96.44,252.59-172.94,395.96-224.86,0,0-9.55,13.89-9.55,13.89-1.03-63.15.43-126.46,5.72-189.6,15.3-189.08,69.05-384.71,201.28-526.64,4.73-5.11,12.3-6.03,18.05-2.61,70.6,43.04,155.34,59.26,236.35,41.79,11.24-2.45,21.28,9.89,16.06,20.33-39.24,88.03-55.93,185.48-68.7,281-12.34,96.87-19.03,194.69-24.44,292.6-8.32-31.79,259.82,675.99,257.96,667.72,6.23,18.16-19.64,28.08-27.09,10.41,0,0-258.9-673.71-258.9-673.71-.75-1.94-1.04-4.04-.94-5.99,5.43-98.27,12.14-196.65,24.63-294.75,13.23-98.61,30.17-197.53,71.16-289.52,0,0,16.06,20.33,16.06,20.33-87.17,19.08-181.25,1.12-256.97-45.27,0,0,18.05-2.61,18.05-2.61-127.63,137.16-178.73,326.27-193.64,509.33-5.19,61.96-6.64,124.31-5.62,186.67.11,6.34-3.91,11.82-9.55,13.89-140.44,50.88-271.85,125.62-387.55,220.09,0,0,5.14-8.81,5.14-8.81l-72.55,425.61c.12-.07-22.68-14.62-22.09-14.67,38-24.22,76.87,15.41,98.25,42.65,20.85,26.4,37.88,54.39,54.24,82.59,16.25,29.17,33.92,57.34,43.87,89.58,32.53,98.32-13.3,199.11-46.88,290.19-22.46,57.51-44.6,127.3-52.73,180.37-2.19,40.33,19.17,77.2,49.42,103.42,46.99,41.08,111.08,63.82,173.13,72.68,18.87,3.13,38.55,4.07,56.28-4.12,8.94-3.79,16.56-9.14,23.91-15.53,15.6-12.86,35.55-29.18,49.89-42.69,72.94-64.63,130.77-145,152.79-240.88,20.54-83.77,23.21-172.61,24.94-260.97.04-4.75,1.88-9.13,4.85-12.4,41.52-46.13,86.5-89.36,135.39-127.8,24.54-19.21,50.34-36.93,77.27-52.72,26.99-15.65,55.34-28.98,84.89-38.98,2.76-.99,5.8.44,6.79,3.2.94,2.6-.29,5.43-2.7,6.59h0Z"/>
      <g>
        <g>
          <path class="cls-9" d="M2195.57,1373.91c-24.39-.93-39.26-5.29-39.26-5.29,49.21-66.66,146.77-95.81,209.9-108.08.41.17.81.31,1.2.44-77.72,35.94-134.3,78.71-171.85,112.92Z"/>
          <path class="cls-1" d="M2386.44,1268.75s87.18-61.2,38.9-163.24c-46.38-98.01-162.38-97.02-228.64-51.92-69.62,47.38-90.98,105.74-81.52,173.28,9.88,70.55,54.79,127.65,54.79,127.65l216.48-85.77Z"/>
          <path class="cls-1" d="M2169.97,1354.52s-44.92-57.11-54.81-127.63c-7.12-50.75,3.19-96.35,38.29-135.92,11.6-13.15,25.92-25.62,43.24-37.37,66.24-45.12,182.24-46.09,228.64,51.91,48.28,102.05-38.88,163.23-38.88,163.23l-63.59,25.19-152.89,60.59Z"/>
          <path class="cls-2" d="M2169.97,1354.52s-44.92-57.11-54.81-127.63c-7.12-50.75,3.19-96.35,38.29-135.92,1.56,14.34,7.24,30.29,24.46,32.5,16.22,2.1,37.11-20.37,86.35-31.68,52.43-12.05,144.32,66.02,58.59,202.15l-152.89,60.59Z"/>
          <path class="cls-3" d="M2165.64,1370.55l-6.14-7.8c-1.92-2.45-47.25-60.77-57.51-134.04-10.9-77.89,17.63-138.77,87.21-186.13,43.24-29.43,100.9-39.33,150.47-25.85,43.83,11.92,77.6,40.66,97.69,83.08,52.48,110.89-42.32,179.15-43.28,179.82l-1.29.9-1.46.57-225.71,89.43ZM2294.66,1037.53c-31.78,0-64.65,9.49-90.47,27.06-61.22,41.67-85.32,92.65-75.83,160.43,7.17,51.26,34.38,95.75,46.36,113.3l205.22-81.31c9.96-7.58,73.73-60.54,33.37-145.8-16.65-35.18-44.53-58.96-80.61-68.78-12.12-3.3-24.99-4.89-38.03-4.89ZM2386.44,1268.75h.05-.05ZM2386.44,1268.75h.05-.05Z"/>
          <path class="cls-3" d="M2165.64,1370.55l-6.14-7.8c-1.92-2.45-47.25-60.77-57.51-134.04-10.9-77.89,17.63-138.77,87.21-186.13,43.24-29.43,100.9-39.33,150.47-25.85,43.83,11.92,77.6,40.66,97.69,83.08,52.48,110.89-42.32,179.15-43.28,179.82l-1.29.9-1.46.57-225.71,89.43ZM2294.66,1037.53c-31.78,0-64.65,9.49-90.47,27.06-61.22,41.67-85.32,92.65-75.83,160.43,7.17,51.26,34.38,95.75,46.36,113.3l205.22-81.31c9.96-7.58,73.73-60.54,33.37-145.8-16.65-35.18-44.53-58.96-80.61-68.78-12.12-3.3-24.99-4.89-38.03-4.89ZM2386.44,1268.75h.05-.05ZM2386.44,1268.75h.05-.05Z"/>
          <path class="cls-11" d="M2220.69,1106.64c-75.15,49.52-52.39,204.5,44.19,192.34l29.49-8.52c121.14-72.26,79.64-222.72-30.09-198.66,0,0-9.78,2.38-21.54,6.22-10.52,3.44-22.04,8.62-22.04,8.62Z"/>
          <path class="cls-11" d="M2294.36,1290.45l-29.49,8.52c-96.55,12.16-119.33-142.82-44.17-192.35,0,0,11.51-5.15,22.03-8.62,11.75-3.82,21.54-6.22,21.54-6.22,3.99-.86,7.89-1.52,11.69-1.9,5.13-.62,10.11-.8,14.91-.57,89.03,3.59,114.29,135.08,3.48,201.15Z"/>
          <path class="cls-14" d="M2294.36,1290.45l-29.49,8.52c-96.55,12.16-119.33-142.82-44.17-192.35,0,0,11.51-5.15,22.03-8.62,11.75-3.82,21.54-6.22,21.54-6.22,3.99-.86,7.89-1.52,11.69-1.9,0,0-67.32,19.26-47.6,72.62,19.48,52.68,88.25,41.43,101.77,9.17,25.28-60.51-39.25-82.33-39.25-82.33v-.03c89.02,3.59,114.28,135.08,3.47,201.15Z"/>
          <path class="cls-3" d="M2220.69,1106.64c-61.6,48.32-42.3,188.43,40.54,179.7,0,0,29.45-8.65,29.45-8.65l-3.12,1.35c19.88-11.86,37.42-27.27,49.96-46.04,25.28-36.21,29.12-91.91-6.2-123.05-17.8-16.06-43.21-20.65-67.04-18.15,38.3-14.41,82.87.51,102.21,37.69,34.68,64.26-8.09,143.12-68.44,173.74,0,0-29.52,8.38-29.52,8.38-112.72,15.76-135.01-159.85-47.84-204.97h0Z"/>
          <g>
            <path class="cls-1" d="M2228.6,1304.71c-.62-21.58,8.55-62.8,37.82-71.37,39.84-11.67,55.3,41.86,55.3,41.86"/>
            <path class="cls-3" d="M2218.62,1305c-.75-26.09,10.8-71.22,44.99-81.24,12.42-3.64,24.15-2.51,34.84,3.36,23.23,12.76,32.48,43.99,32.86,45.31l-19.18,5.54c-.52-1.77-13.2-43.8-42.91-35.05-21.93,6.42-31.25,40.49-30.65,61.5l-19.96.57Z"/>
          </g>
          <path class="cls-13" d="M2425.29,1252.09s-192.64,13.13-268.98,116.54c0,0,73.2,21.48,161.06-20.76,87.87-42.24,107.92-95.78,107.92-95.78Z"/>
          <path class="cls-9" d="M2195.57,1373.91c-24.39-.93-39.26-5.29-39.26-5.29,49.21-66.66,146.77-95.81,209.9-108.08.41.17.81.31,1.2.44-77.72,35.94-134.3,78.71-171.85,112.92Z"/>
          <path class="cls-3" d="M2425.29,1252.09c-80.23,24.95-169.03,46.47-239.24,93.7-10.21,6.85-19.81,14.61-29.74,22.85,43.06-89.47,176.59-126.99,268.98-116.54h0Z"/>
        </g>
        <path class="cls-13" d="M2494.26,2418.94c-156.18-27.86-317.42-154.52-468.94-482.61l-80.96-331.59c-19.62-344.82,190.18-387.33,260.45-361.79,154.75-113.01,327.19-196.14,498.46-173.64,16.91,2.22,33.6,5.44,49.95,9.47,147.5,47.27,266.95,117.87,373.81,261.63,218.71,294.21,157.5,710.01-136.71,928.72-119.75,89.02-288.81,148.34-496.06,149.81"/>
        <g class="cls-7">
          <path class="cls-5" d="M2990.33,2269.13c294.21-218.71,355.42-634.51,136.71-928.72-106.87-143.76-226.31-214.36-373.81-261.63-9.83-2.42-19.79-4.51-29.84-6.3,147.23,47.26,266.51,117.87,373.23,261.44,218.71,294.21,157.5,710.01-136.71,928.72-119.61,88.92-288.43,148.2-495.36,149.8,9.92,2.58,19.83,4.74,29.71,6.51h.01c207.25-1.47,376.31-60.79,496.06-149.81Z"/>
        </g>
        <path class="cls-9" d="M2083.79,1256.54c-76.03,37.43-151.55,135.04-139.45,348.19l80.98,331.6c225.68,488.65,472.91,530.5,692.91,464.51l-152.44-91.13s-248.78,46.17-448.29-425.92c-148.38-351.1-85.62-542.97-33.71-627.26Z"/>
        <path class="cls-3" d="M2494.37,2432.25l-.19-26.62c191.69-1.36,360.51-52.25,488.21-147.18,139.44-103.66,230.17-255.41,255.47-427.3,25.31-171.89-17.84-343.36-121.5-482.8-95.23-128.11-205.04-204.94-367.19-256.9l8.12-25.35c167.85,53.79,281.63,133.45,380.43,266.37,107.9,145.14,152.81,323.62,126.48,502.55-26.34,178.93-120.78,336.89-265.93,444.79-132.27,98.32-306.51,151.03-503.9,152.44Z"/>
        <path class="cls-3" d="M2491.92,2432.04c-185.03-33.01-341.61-193.33-478.69-490.13-.36-.78-.64-1.59-.85-2.43l-80.96-331.59c-.19-.79-.31-1.59-.36-2.4-11.55-203.08,55.3-297.24,113.42-340.46,55.26-41.1,118.76-47.81,157.95-36.81,187.37-135.6,351.83-191.91,502.58-172.1,16.86,2.21,34.15,5.49,51.4,9.74l-6.37,25.84c-16.3-4.01-32.62-7.11-48.5-9.2-145.11-19.02-305.03,36.94-488.88,171.19-3.59,2.62-8.24,3.28-12.4,1.76-26.55-9.64-85.72-9.37-139.89,30.93-52.76,39.24-113.35,125.99-102.8,316.38l80.37,329.14c133.03,287.58,283.06,442.6,458.66,473.92l-4.68,26.2Z"/>
        <path class="cls-1" d="M2781.79,1318.57c-39.84-124.02-153.31-174.61-259.21-158.85-156.82,23.34-293.34,139.6-293.34,139.6,0,0-59.12-41.56-154.32,9.45-71.61,38.37-215.56,212.25-70.2,580.86,148.15,372.56,359.25,448.91,497.06,394.7,97.42-38.32,110.36-124.75,110.36-124.75,0,0,181.01,6.61,306.07-130.86,79.08-86.93,69.07-231.7,36.56-307.61-41.79-97.59-142.48-167.58-273.51-165.17,77.7-63.43,129.51-147.17,100.53-237.37Z"/>
        <path class="cls-2" d="M2059.36,1354.93c-27.38,25.5-56.76,68.16-73.77,128.13-30.35,106.97-14.66,243.99,45.37,396.22,26.7,67.14,56.66,127.2,89.03,178.44,0,.01.02.03.02.04,59.03,93.43,127.99,159.72,199.41,191.71,46.73,20.93,87.64,24.78,120.82,21.17,0,0-198.01-24.79-380.66-428.68-133.03-294.17-.23-487.04-.23-487.04Z"/>
        <path class="cls-3" d="M2417.98,2313.32c-134.23,0-301.55-106.74-425.63-418.77-64.32-163.11-80.03-305.36-46.7-422.82,26.84-94.59,81.13-152.26,122.98-174.69,80.68-43.23,137.91-24.23,159.2-13.76,30.68-24.52,152.7-115.86,292.79-136.71,104.43-15.57,229.63,30.37,273.84,167.94h0c24.66,76.76-3.39,157.19-79.07,229.13,114.41,8.88,209.03,72.8,251.61,172.24,33.73,78.77,43.95,230.68-38.95,321.81-111.29,122.35-263.02,134.35-305.31,135.22-7.26,26.3-33.09,91.17-116.09,123.82-27.03,10.63-56.93,16.6-88.66,16.6ZM2166.85,1296.55c-22.51,0-51.4,5.6-85.65,23.95-35.35,18.94-85.35,71.81-109.94,158.49-31.25,110.14-15.4,250.45,45.84,405.76,146.17,367.58,349.81,438.33,479.81,387.2,88.64-34.86,101.57-111.15,102.07-114.38,1.04-6.66,6.78-11.6,13.64-11.29,1.73.04,176.51,4.55,295.74-126.51,74.95-82.39,65.1-221.18,34.17-293.41-42.43-99.08-142.3-159.39-261.03-157.11-5.82-.06-10.78-3.39-12.74-8.72-1.95-5.33-.31-11.3,4.08-14.89,49.68-40.56,128.25-123.46,96.27-222.99h0c-39.43-122.73-151.23-163.64-244.58-149.75-151.3,22.52-285.34,135.43-286.67,136.57-4.64,3.94-11.33,4.24-16.28.76-1.27-.86-20.7-13.67-54.73-13.67Z"/>
        <g>
          <path class="cls-3" d="M2354.19,1702.07c-1.83-2.23-.74-5.59,2.04-6.35,8.36-2.29,23.47-4.55,30.22,6.13,8.94,14.15-3.53,21.48-8.05,21.81-5.26.39-9.79-2.22-14.65-9.11-2.98-4.23-6.74-9.03-9.56-12.48Z"/>
          <path class="cls-3" d="M2336.25,1660.49c.37,2.87,3.55,4.37,6.02,2.87,7.4-4.52,19.42-13.95,16.28-26.18-4.16-16.21-18.05-12.17-21.39-9.11-3.9,3.56-5.11,8.65-3.43,16.91,1.03,5.07,1.95,11.1,2.52,15.52Z"/>
        </g>
        <ellipse class="cls-11" cx="2514.82" cy="2122.19" rx="38.07" ry="69.88" transform="translate(-639.81 1186.07) rotate(-23.63)"/>
        <ellipse class="cls-11" cx="2187.35" cy="1356.2" rx="38.07" ry="56.06" transform="translate(-360.22 990.56) rotate(-23.63)"/>
        <g>
          <ellipse class="cls-3" cx="2553.97" cy="1870.89" rx="124.65" ry="107.94" transform="translate(-536.19 1182.48) rotate(-23.67)"/>
          <ellipse class="cls-5" cx="2576.82" cy="1884.88" rx="44.55" ry="35.19" transform="translate(-539.88 1192.83) rotate(-23.67)"/>
          <g class="cls-10">
            <ellipse class="cls-5" cx="2500.58" cy="1857.66" rx="30.15" ry="19.49" transform="translate(-535.37 1159.93) rotate(-23.67)"/>
          </g>
        </g>
        <g>
          <ellipse class="cls-3" cx="2370.36" cy="1463.56" rx="117.24" ry="101.52" transform="translate(-388.13 1074.52) rotate(-23.67)"/>
          <ellipse class="cls-5" cx="2393.76" cy="1479.28" rx="41.9" ry="33.1" transform="translate(-392.47 1085.25) rotate(-23.67)"/>
          <g class="cls-10">
            <ellipse class="cls-5" cx="2318.56" cy="1447.33" rx="28.36" ry="18.33" transform="translate(-385.97 1052.35) rotate(-23.66)"/>
          </g>
        </g>
        <g>
          <path class="cls-3" d="M2244.34,1958.51c35.59,21.96,98.76,29.61,120.44-16.13,22.59-58.32-47.47-72.57-80.68-144.06-24.28-52.27-15-78.45-45.38-90.9-22.23-9.11-71.79,5.72-83.52,60.21-13.28,61.69,29.48,152.03,89.14,190.87Z"/>
          <path class="cls-3" d="M2244.33,1958.52c-59.65-38.87-102.41-129.2-89.15-190.89,11.76-54.49,61.31-69.32,83.54-60.22,14.86,6.08,20.23,15.44,24.67,29.54,4.68,14.73,8.3,34.63,20.73,61.36,19.31,41.59,51.1,63.82,69.84,86.6,13.51,16.37,20.29,33.08,10.83,57.46-21.67,45.74-84.83,38.08-120.45,16.14Z"/>
          <path class="cls-5" d="M2249.87,1812.84c-19.25-44.08-5.52-64.33,13.52-75.89,4.68,14.73,8.3,34.63,20.73,61.36,19.31,41.59,51.1,63.82,69.84,86.6-40.86,31.89-81.73-20.97-104.09-72.08Z"/>
          <path class="cls-11" d="M2156.97,1827.32c11.48,50.59,45.19,103.74,87.38,131.19.4.25.8.49,1.23.77,15.62-23.64,12.74-53.34-12.41-68.84-5.1-40.59-42.38-66.8-76.19-63.13Z"/>
          <path class="cls-3" d="M2249.34,1872.87s-.13,31.68-6,25.79c-6.95-6.98-23.88-16.19-34.36-13.76,0,0,18.17-14.06,40.36-12.03Z"/>
          <path class="cls-3" d="M2305.5,1985.9c-24.5,0-49.32-8.35-66.41-18.9l-.2-.13c-63.92-41.61-107.59-135.7-93.45-201.34,5.97-27.71,21.85-49.61,44.74-61.67,17.85-9.41,37.9-11.59,52.33-5.68,23.43,9.6,28.14,26.85,34.11,48.7,3.43,12.57,7.71,28.21,16.55,47.23,12.8,27.55,31.62,46.34,48.23,62.92,24.91,24.86,48.43,48.35,32.7,88.95l-.29.67c-8.36,17.64-22.95,29.97-42.17,35.66-8.41,2.49-17.25,3.58-26.13,3.58ZM2249.68,1950.08c18.88,11.61,50.76,20.63,76.28,13.1,13.71-4.06,23.68-12.38,29.64-24.74,10.33-27.03-1.95-40.94-28.32-67.27-16.91-16.88-37.94-37.87-52.23-68.64-9.55-20.54-14.06-37.09-17.69-50.38-6.01-22-8.78-29.9-22.42-35.48-7.33-3.01-21.15-2.67-35.46,4.87-10.17,5.36-28.18,18.75-34.52,48.2-12.37,57.43,28.01,143.35,84.72,180.34Z"/>
        </g>
        <g>
          <path class="cls-9" d="M2565.79,2309.73c-16.27,19.01-23.33,33.24-23.33,33.24,84.44,9.32,174.26-43.87,227.42-82.87.16-.43.33-.82.51-1.21-81.14,33.52-152.71,46.37-204.59,50.84Z"/>
          <path class="cls-1" d="M2777.78,2239.16s106.75-23.07,149.98,84.28c41.53,103.11-39.92,189.78-119.97,208.3-84.11,19.46-142.92-5.06-187.21-59.17-46.26-56.52-58.01-130.07-58.01-130.07l215.2-103.34Z"/>
          <path class="cls-1" d="M2562.58,2342.5s11.75,73.56,57.98,130.07c33.27,40.67,74.78,64.63,129,65.73,17.98.41,37.32-1.7,58.22-6.56,80.06-18.49,161.5-105.16,119.98-208.28-43.26-107.36-149.97-84.29-149.97-84.29l-63.21,30.37-152,72.97Z"/>
          <path class="cls-2" d="M2562.58,2342.5s11.75,73.56,57.98,130.07c33.27,40.67,74.78,64.63,129,65.73-9.72-11.15-17.77-26.53-7.45-41.03,9.71-13.68,41.15-13.78,83.93-42.98,45.55-31.09,50.69-154.62-111.46-184.76l-152,72.97Z"/>
          <path class="cls-3" d="M2753.39,2551.72c-57.24,0-104.39-23.39-143.11-70.71-47.98-58.63-60.34-133.26-60.84-136.4l-1.57-9.8,225.57-108.31,1.53-.33c1.18-.25,118.25-24.09,165.14,92.31,17.94,44.55,16.08,89.88-5.39,131.08-24.29,46.63-71.78,83.09-123.93,95.15-20.17,4.67-39.3,7.01-57.4,7.01ZM2577.69,2350.01c4.83,21.09,19.4,72.85,53.19,114.13,44.53,54.42,99.8,71.77,173.91,54.63,44.1-10.2,85.84-42.2,106.32-81.52,17.76-34.09,19.25-71.73,4.31-108.84-36.47-90.56-120.9-78.79-133.39-76.52l-204.33,98.11Z"/>
          <path class="cls-3" d="M2753.39,2551.72c-57.24,0-104.39-23.39-143.11-70.71-47.98-58.63-60.34-133.26-60.84-136.4l-1.57-9.8,225.57-108.31,1.53-.33c1.18-.25,118.25-24.09,165.14,92.31,17.94,44.55,16.08,89.88-5.39,131.08-24.29,46.63-71.78,83.09-123.93,95.15-20.17,4.67-39.3,7.01-57.4,7.01ZM2577.69,2350.01c4.83,21.09,19.4,72.85,53.19,114.13,44.53,54.42,99.8,71.77,173.91,54.63,44.1-10.2,85.84-42.2,106.32-81.52,17.76-34.09,19.25-71.73,4.31-108.84-36.47-90.56-120.9-78.79-133.39-76.52l-204.33,98.11Z"/>
          <path class="cls-11" d="M2784.53,2476.77c-89.57,22.14-190.44-102.83-114.09-167.09l26.93-16.28c138.69-40.95,223.12,94.99,128.66,160.88,0,0-8.6,5.71-19.67,11.89-9.91,5.53-21.83,10.6-21.83,10.6Z"/>
          <path class="cls-11" d="M2697.36,2293.4l-26.93,16.28c-76.32,64.24,24.52,189.22,114.12,167.08,0,0,11.89-5.08,21.82-10.59,11.05-6.19,19.67-11.89,19.67-11.89,3.42-2.4,6.64-4.88,9.57-7.48,4.04-3.43,7.64-7.05,10.81-10.83,59.24-69.54-22.2-180.05-149.05-142.57Z"/>
          <path class="cls-14" d="M2697.36,2293.4l-26.93,16.28c-76.32,64.24,24.52,189.22,114.12,167.08,0,0,11.89-5.08,21.82-10.59,11.05-6.19,19.67-11.89,19.67-11.89,3.42-2.4,6.64-4.88,9.57-7.48,0,0-61.34,37.29-87.8-14.68-26.11-51.32,30.2-95.29,63.9-83.01,63.15,23.06,34.69,86.84,34.69,86.84l.02.03c59.24-69.54-22.2-180.05-149.05-142.57Z"/>
          <path class="cls-3" d="M2784.53,2476.77c-94.38,33.94-210.89-104.58-120.9-178.35,0,0,26.86-16.4,26.86-16.4,64.89-24.02,153.8-1.48,178.07,69.14,14.54,40.34-5.13,84.23-42.53,103.11,18.51-16.16,32.8-38.49,33.14-63.1,1.21-48.39-43.48-84.42-88.46-90.62-22.91-3.63-46.78-1.15-69.58,5.58l3.11-1.37-27,16.16c-64.54,56.61,27.9,168.83,107.29,155.84h0Z"/>
          <g>
            <path class="cls-1" d="M2640.88,2333c15.82,15.49,53.23,37.26,80.06,21.18,36.51-21.88,6.95-70.77,6.95-70.77"/>
            <path class="cls-3" d="M2699.67,2369.74c-25.38,0-51.75-15.88-65.78-29.6l13.97-14.27c15.45,15.13,47.73,31.87,67.94,19.75,27.43-16.43,4.52-55.4,3.53-57.05l17.1-10.31c.73,1.2,17.76,29.8,11.23,56.07-3,12.07-10.26,21.63-21.59,28.42-8.26,4.95-17.27,7-26.4,7Z"/>
          </g>
          <path class="cls-13" d="M2817.35,2221.5s-143.92,135.93-274.9,121.47c0,0,34.76-70.06,127.69-106.84,92.94-36.78,147.21-14.62,147.21-14.62Z"/>
          <path class="cls-9" d="M2565.79,2309.73c-16.27,19.01-23.33,33.24-23.33,33.24,84.44,9.32,174.26-43.87,227.42-82.87.16-.43.33-.82.51-1.21-81.14,33.52-152.71,46.37-204.59,50.84Z"/>
          <path class="cls-3" d="M2817.35,2221.5c-56.54,76.35-177.73,150.87-274.9,121.47,13.1-1.67,25.64-3.45,37.91-6.34,84.45-19.68,162.65-71.8,236.99-115.13h0Z"/>
        </g>
        <path class="cls-13" d="M2998.08,1259.34c21.9-36.01-11.3-100.94,20.81-96.66,64.43,8.61,89.36,142.79,96.64,137.44,57.88-42.51,116.69-39.5,123.05-7.59,1.76,8.82-35.17,110.23,4.94,305.07,10.89,54.55,20.68,133.92,9.42,221.4"/>
        <g class="cls-7">
          <path class="cls-5" d="M3085.3,1302.54c7.78-5.71,15.57-10.58,23.25-14.69-12.3-32.53-38.54-118.34-89.66-125.17-7.8-1.04-11.72,2.02-13.54,7.74,52.14,26.67,73.34,136.98,79.95,132.12Z"/>
          <path class="cls-5" d="M3208.35,1294.95c1.76,8.82-35.17,110.23,4.94,305.07,8.39,42.05,16.09,98.87,14.05,162.75l25.61,56.24c11.26-87.48,1.47-166.85-9.42-221.4-40.11-194.84-3.18-296.26-4.94-305.07-4.08-20.45-29.72-29-62.84-21.33,17.63,1.81,29.89,10.14,32.6,23.74Z"/>
        </g>
        <path class="cls-3" d="M2998.08,1259.34c8.89-31.72-10.24-59.29-5.96-91.41,9.5-36.24,56.57-14.85,72.12,4.69,28.43,31.09,42.62,71.96,56.68,110.33,1.11,2.89,2.28,6.04,3.54,8.44.07.15.19.23-.34-.43-.18-.42-2.82-2.64-4.4-3.1-2.04-.86-4.86-1.14-7.13-.64-1.4.27-2.71.83-3.61,1.33-1.35.81-1.5,1.01-1.21.78.81-.57,2.21-1.57,3.03-2.16,29.91-20.62,66.54-37.22,104.46-30.39,14.86,2.87,30.27,12.81,35.14,28.47.63,2.13,1.29,4.32,1.47,6.54.24,5.02-.51,6.81-1.17,11.11-19.66,90.84-14.42,184.92,2.82,276.48,16.77,79.05,23.06,160.92,12.64,241.33,0,0-26.4-3.4-26.4-3.4,10.06-77.39,3.83-156.76-12.4-232.98-16.64-88.77-22.83-181.77-5.68-271.78.58-3.19,3.26-16.09,3.62-19.08.03,0,.01-.94.07.79-.78-3.79-5.8-9.63-15.67-11.45-25.7-4.47-52.41,6.61-74.83,20.3-3.36,2.07-6.87,4.51-10.1,6.8-1.59,1.19-4.08,2.92-6.89,3.4-13.22,2.53-18.42-11.52-21.85-20.97,0,0-10.31-27.91-10.31-27.91-14.23-33.9-30.3-79.54-69.74-87.74-.57,0,.87-.21,1.86-1.39.97-1.15.56-1.5.17-.48-.95,1.93-1.52,6.47-1.8,10.93-1.47,24.42.45,54.66-18.11,73.6h0Z"/>
      </g>
      <ellipse class="cls-1" cx="1736.79" cy="2207.3" rx="299.68" ry="252.31" transform="translate(-870.96 1164.12) rotate(-30)"/>
      <path class="cls-13" d="M1378.53,2029.65l-96.73,232.15c-54.89,43.58-78.5,96.97-71.68,159.8,2.08,19.35-4.01,38.69-16.25,53.88-92.18,114.72-284.77,115.98-367.28-35.79-7.16-13.01-13.45-27.18-18.77-42.46-116.9-395.04,280.23-665.74,480.12-512.57,39.95,30.61,72.06,78.16,90.59,145Z"/>
      <path class="cls-9" d="M1378.53,2029.65l-96.73,232.15c-54.89,43.58-78.5,96.97-71.68,159.8,2.08,19.35-4.01,38.69-16.25,53.88-92.18,114.72-284.77,115.98-367.28-35.79-6.34-17.51-11.37-35.5-15.04-53.68,23.75,58.91,84.3,100.65,147.75,103.45,63.45,2.85,126.76-32.55,159.02-87.25,36.61-62.1,33.52-140.35,63.84-205.69,17.7-38.06,45.9-70.03,70.85-103.79,24.96-33.76,47.54-71.53,50.93-113.37,3.39-41.84-17.6-88.12-57.22-102.05l21.47,7.11c6.63-.48,13.2-.39,19.73.24,39.95,30.61,72.06,78.16,90.59,145Z"/>
      <path class="cls-3" d="M1372.78,2031.24c-22.84-48.51-48.24-96.94-90.27-130.97-136.06-104.75-326.95-1.76-409.15,125.29-60.96,89.67-81.42,203.29-62.39,309.48,5.33,30.53,12.51,61.28,26.55,89,66.51,138.41,249.52,158.32,345.98,40.25,7.91-10.4,12.46-23.45,12.22-36.48-.18-6.99-1.26-13.91-1.23-20.91-.44-20.14,1.95-40.71,8.42-60.13,12.51-37.86,37.42-74.66,76.04-88.57,2.53-.9,5.31.42,6.22,2.95.53,1.48.3,3.04-.49,4.27-15.05,24.43-31.78,42.43-44.75,66.43-11.85,22.88-17.15,48.32-16.11,74.19.19,9.81,2.2,19.72,1.28,29.57-1.31,22.23-12.24,42.62-27.28,58.51-72.96,84.47-207.15,105.64-301.52,44.9-43.03-26.6-75.24-67.68-95.39-113.26-12.21-26.75-18.48-56.08-23.88-84.81-29.7-153.48,25.48-319.87,144.77-421.89,87.64-76.01,216.76-122.54,328.93-74.35,73.75,31.49,125.27,104.4,133.56,183.35.74,6.86-8.77,9.25-11.5,3.19h0Z"/>
      <g class="cls-6">
        <path class="cls-5" d="M1052.66,1907.15c-8.13,4.25-21.82,11.64-38.35,21.84-45.86,28.31-113.38,76.55-137.9,143.41-5.45,14.87-7.95,33.83,6,43.72,6.27,4.45,14.35,5.49,21.86,3.84,15.03-3.3,25.47-14.57,35.14-25.66,42.98-49.27,83.31-104.49,142.23-132.83,10.21-4.91,21.71-9.68,24.1-22.41,1.41-7.52-1.16-15.29-6.11-21.12-7.44-8.76-18.11-12.58-29.18-14.02-6.07,1.1-11.73,2.13-17.8,3.24Z"/>
      </g>
      <path class="cls-1" d="M1892.73,993.51c-30.55-23.05-46.74-71.81-35.39-110.1l24.18-72.55c130.68,20.58,257.72,18.84,377.24-29.02-4.84,164.44-72.6,255.77-170.56,257.76-77.77,2.51-142.99-12.78-195.49-46.09Z"/>
      <path class="cls-2" d="M1874.97,965.36c-12.94-18.07-10.16-44.14,6.35-59.61,14-13.11,35.09-17.91,55.18-18.43,20.82-.53,43.89,4.11,55.97,19.52-1.6-11.64-2.58-23.35-2.91-35.07-21,.17-41.95-7.23-57.33-20.23-22.04,19.25-59.05,22.31-84.55,6.97.8,15.47,2.4,30.91,4.8,46.24,2.55,16.34,6.67,33.71,19.86,45.05.78.67,1.74,1.36,2.81,1.24,1.07-.13,1.76-1.62.82-2.1"/>
      <path class="cls-3" d="M2072.07,1054.37c-73.3,0-136.22-16.32-187.11-48.61-.33-.21-.65-.43-.96-.67-35.67-26.92-53.49-82.18-40.56-125.81l24.33-73.02c2.24-6.73,8.98-10.82,16.02-9.75,146.52,23.09,263.96,14.13,369.59-28.15,4.53-1.81,9.69-1.23,13.7,1.58,4.01,2.8,6.34,7.43,6.2,12.32-2.42,82.1-20.7,150.41-52.88,197.55-32.43,47.5-78.03,73.19-131.89,74.28-5.53.18-11.02.27-16.44.27ZM1901.02,981.58c49.56,31.27,112.37,45.86,186.73,43.51,89.04-1.81,146.25-84.24,155.48-221.87-102.18,36.39-214.91,43.97-351.8,23.81l-20.32,60.95c-9.36,31.62,3.98,73.67,29.91,93.59Z"/>
      <path class="cls-1" d="M2229.75,689.94c-50.72-53.7-165.42-74-259.76-63.67-89.75,9.82-154.02,94.08-135.1,182.36,4.55,21.24,13.06,37.59,26.65,47.67,25.18,17.51,53.84,12.6,73.19-11.59,31.46,24.29,82.22,19.35,111.24,0,36.77,25.81,101.57,14.51,115.75-48.51-5.05-26.72-5.76-52.62.32-77.24,20.6-9.28,42.73-20.17,67.71-29.02Z"/>
      <path class="cls-2" d="M1838.23,770.85c1.04,12.91,7.41,24.75,14.46,35.61,3.97,6.12,8.39,12.24,14.62,16.05,10.83,6.61,25.6,4.6,35.68-3.11,10.07-7.72,15.74-20.2,17.24-32.8.49,9.99,3.68,19.63,5.6,29.45,1.92,9.82,2.46,20.46-2.04,29.39-7.38,14.62-26.99,20.06-42.53,14.91s-27.12-18.58-34.4-33.25c-7.08-14.27-10.8-30.19-10.79-46.12,1.38-.58,2.76-1.16,4.14-1.74"/>
      <path class="cls-2" d="M1927.98,787.99c8.09,17.11,23.93,30.37,42.2,35.31,18.27,4.94,38.64,1.47,54.24-9.24,3.62-2.49,7.03-5.38,9.51-9.01,3.51-5.14,4.92-11.38,6.25-17.46,3.64,15.03,5.6,30.47,5.84,45.93.03,2.3.02,4.67-.87,6.8-.56,1.34-1.44,2.51-2.36,3.63-11.11,13.35-29.57,18.84-46.92,18.04-17.35-.8-33.94-7.08-49.95-13.82-2.03-.86-4.13-1.77-5.61-3.41-1.78-1.99-2.37-4.73-2.91-7.34-2.85-13.98-5.7-27.97-8.55-41.95"/>
      <path class="cls-2" d="M2041.21,785.18c11.5,25.42,43.9,37.9,70.61,29.85,18.03-5.43,34.39-21.35,33.85-40.17,5.34,14.23,9.51,30.3,3.64,44.31-5.3,12.64-17.67,20.8-30.05,26.69-15.77,7.5-33.59,12.65-50.64,8.87-4.57-1.01-9.12-2.73-12.57-5.9-4.26-3.91-6.39-9.59-8-15.14-3.43-11.85-5.15-24.19-5.09-36.52"/>
      <path class="cls-3" d="M1892.75,881.25c-13.32,0-26.9-4.28-39.5-13.04-16.24-12.03-27.08-30.96-32.56-56.54-9.77-45.6.07-91.79,27.7-130.06,28.22-39.08,71.96-64.51,120.01-69.77,90.61-9.94,214.32,7.17,271.89,68.14,3.37,3.57,4.71,8.6,3.56,13.36-1.15,4.77-4.64,8.64-9.26,10.27-19.03,6.74-36.34,14.7-53.09,22.4-2.3,1.06-4.59,2.11-6.85,3.15-3.66,19.18-3.21,40.31,1.32,64.34.37,1.95.34,3.95-.1,5.88-7.23,32.12-26.74,55.8-54.95,66.7-24.66,9.52-52.59,7.71-75.08-4.43-30.63,16.36-75.12,20.44-108.88,1.81-12.97,11.74-28.41,17.78-44.22,17.78ZM2018.16,638.23c-16.01,0-31.69.83-46.59,2.46-39.91,4.37-76.22,25.47-99.64,57.91-22.76,31.52-30.87,69.52-22.85,106.99,3.95,18.46,11.06,31.6,21.1,39.04,18.39,12.79,38.41,9.51,53.22-8.99,4.95-6.18,13.93-7.25,20.2-2.42,25.91,20.01,69.67,15.84,94.32-.59,4.98-3.31,11.48-3.24,16.38.2,15.58,10.92,37.63,13.35,56.17,6.18,18.09-6.99,30.95-22.29,36.42-43.24-5.27-29.76-4.92-56.06,1.06-80.29,1.07-4.33,4.06-7.92,8.13-9.75,4.36-1.96,8.79-4,13.3-6.08,10.58-4.87,21.38-9.83,32.81-14.6-44.04-32.14-116.87-46.83-184.03-46.83Z"/>
      <path class="cls-3" d="M2060.95,867.6c-46.04-9.36-32.26-106.56-14.97-136.27,2.96-5.71,11.84-1.88,9.68,4.19-3.4,9.66-5.29,19.89-6.18,30.18-1.56,19.79-.06,41.29,6.43,59.72,2.14,5.46,4.39,11.08,8.43,13.8.66.3.45-.22-.31-.47,7.97.85,13.74,8,12.89,15.97-.85,7.97-8,13.74-15.97,12.89h0Z"/>
      <path class="cls-3" d="M1936.5,862.81c-30.95-30.86-19.26-98.24-6.71-135.59,2.08-5.88,11.14-3.4,9.89,2.73-2.03,10.17-3.1,20.63-3.58,31.05-.41,24.72-.28,63,19.06,79.59,17.57,12.66-3.07,37.35-18.66,22.23h0Z"/>
      <path class="cls-3" d="M2008.47,869.11c-20.41,31.5,7.6,48.68,37.1,52.01,35.27,4,70.13-4.64,104.25-14.49,7.1-2.18,11.52,7.81,5.09,11.58-42.18,24.16-94.63,40.48-143.06,23.84-39.51-13.81-52.16-55.32-27.52-89.04,11.15-15.11,33.8.11,24.14,16.11h0Z"/>
    </g>
  </g>
</svg>