<?xml version="1.0" encoding="UTF-8" standalone="no"?>
<!-- Created with Inkscape (http://www.inkscape.org/) -->
<svg xmlns="http://www.w3.org/2000/svg" xmlns:svg="http://www.w3.org/2000/svg" version="1.1" id="svg1875" width="682.66669" height="682.66669" viewBox="0 0 682.66669 682.66669">
  <defs id="defs1879">
    <clipPath clipPathUnits="userSpaceOnUse" id="clipPath1889">
      <path d="M 0,512 H 512 V 0 H 0 Z" id="path1887"/>
    </clipPath>
  </defs>
  <mask id="custom"><rect id="bg" x="0" y="0" width="100%" height="100%" fill="white"/><g transform="matrix(1.3333333,0,0,-1.3333333,0,682.66667)"><path transform="matrix(1,0,0,1,392,157)" d="m 0,0 c 0,-11.046 -8.954,-20 -20,-20 -11.046,0 -20,8.954 -20,20 0,11.046 8.954,20 20,20 C -8.954,20 0,11.046 0,0" style="fill:#ffffff;fill-opacity:1;fill-rule:nonzero;stroke:none" id="path1917"/><path transform="matrix(1,0,0,1,160,157)" d="m 0,0 c 0,-11.046 -8.954,-20 -20,-20 -11.046,0 -20,8.954 -20,20 0,11.046 8.954,20 20,20 C -8.954,20 0,11.046 0,0" style="fill:#ffffff;fill-opacity:1;fill-rule:nonzero;stroke:none" id="path1921"/></g></mask><g mask="url(#custom)"><g id="g1881" transform="matrix(1.3333333,0,0,-1.3333333,0,682.66667)">
    <g id="g1883">
      <g id="g1885" clip-path="url(#clipPath1889)">
        <g id="g1891" transform="translate(452,91)">
          <path d="m 0,0 h -392 v 332.636 c 0,30.479 22.844,56.129 53.124,59.605 36.898,4.237 89.115,8.759 143.876,8.759 54.292,0 105.527,-4.445 141.844,-8.65 C -22.869,388.844 0,363.231 0,332.742 Z" style="fill:none;stroke:#000000;stroke-width:40;stroke-linecap:round;stroke-linejoin:round;stroke-miterlimit:10;stroke-dasharray:none;stroke-opacity:1" id="path1893"/>
        </g>
        <g id="g1895" transform="translate(292,157)">
          <path d="M 0,0 H -72" style="fill:none;stroke:#000000;stroke-width:40;stroke-linecap:round;stroke-linejoin:round;stroke-miterlimit:10;stroke-dasharray:none;stroke-opacity:1" id="path1897"/>
        </g>
        <g id="g1899" transform="translate(60,372)">
          <path d="m 0,0 v -96 c 0,-19.743 14.4,-36.525 33.912,-39.534 38.321,-5.91 103.296,-14.276 164.088,-14.276 60.273,0 123.014,8.223 160.276,14.123 19.429,3.078 33.724,19.835 33.724,39.506 V 0" style="fill:none;stroke:#000000;stroke-width:40;stroke-linecap:round;stroke-linejoin:round;stroke-miterlimit:10;stroke-dasharray:none;stroke-opacity:1" id="path1901"/>
        </g>
        <g id="g1903" transform="translate(492,351)">
          <path d="m 0,0 v 21 c 0,22.091 -17.908,40 -40,40 h -187 -205 c -22.092,0 -40,-17.909 -40,-40 V 1" style="fill:none;stroke:#000000;stroke-width:40;stroke-linecap:round;stroke-linejoin:round;stroke-miterlimit:10;stroke-dasharray:none;stroke-opacity:1" id="path1905"/>
        </g>
        <g id="g1907" transform="translate(372,83)">
          <path d="M 0,0 V -63 H 80 V 7" style="fill:none;stroke:#000000;stroke-width:40;stroke-linecap:round;stroke-linejoin:round;stroke-miterlimit:10;stroke-dasharray:none;stroke-opacity:1" id="path1909"/>
        </g>
        <g id="g1911" transform="translate(140,86)">
          <path d="M 0,0 V -66 H -80 V 6" style="fill:none;stroke:#000000;stroke-width:40;stroke-linecap:round;stroke-linejoin:round;stroke-miterlimit:10;stroke-dasharray:none;stroke-opacity:1" id="path1913"/>
        </g>
        <g id="g1915" transform="translate(392,157)">
          <path d="m 0,0 c 0,-11.046 -8.954,-20 -20,-20 -11.046,0 -20,8.954 -20,20 0,11.046 8.954,20 20,20 C -8.954,20 0,11.046 0,0" style="fill:#000000;fill-opacity:1;fill-rule:nonzero;stroke:none" id="path1917"/>
        </g>
        <g id="g1919" transform="translate(160,157)">
          <path d="m 0,0 c 0,-11.046 -8.954,-20 -20,-20 -11.046,0 -20,8.954 -20,20 0,11.046 8.954,20 20,20 C -8.954,20 0,11.046 0,0" style="fill:#000000;fill-opacity:1;fill-rule:nonzero;stroke:none" id="path1921"/>
        </g>
      </g>
    </g>
  </g></g>
</svg>
