<?xml version="1.0" encoding="UTF-8"?>
<svg id="Capa_1" xmlns="http://www.w3.org/2000/svg" version="1.1" xmlns:xlink="http://www.w3.org/1999/xlink" viewBox="0 0 512 512">
  <!-- Generator: Adobe Illustrator 29.3.1, SVG Export Plug-In . SVG Version: 2.1.0 Build 151)  -->
  <defs>
    <style>
      .st0 {
        fill: none;
        stroke: #000;
        stroke-linecap: round;
        stroke-linejoin: round;
        stroke-width: 40px;
      }
    </style>
  </defs>
  <g>
    <path class="st0" d="M404.2,404.8c-97.3,32.3-199.2,32.3-296.5,0v-60h0c97.3,32.3,199.2,32.3,296.5,0h0v60Z"/>
    <g>
      <rect class="st0" x="50.6" y="292.1" width="57.1" height="204.9"/>
      <line class="st0" x1="25" y1="292.1" x2="133.4" y2="292.1"/>
      <ellipse class="st0" cx="79.2" cy="253.7" rx="38.6" ry="38.4"/>
    </g>
    <g>
      <rect class="st0" x="404.2" y="292.1" width="57.1" height="204.9"/>
      <line class="st0" x1="378.6" y1="292.1" x2="487" y2="292.1"/>
      <ellipse class="st0" cx="432.8" cy="253.7" rx="38.6" ry="38.4"/>
    </g>
  </g>
  <g>
    <polygon class="st0" points="256 109.9 220.3 128.7 227.1 88.9 198.2 60.7 238.1 54.9 256 18.7 273.9 54.9 313.8 60.7 284.9 88.9 291.7 128.7 256 109.9"/>
    <line class="st0" x1="126.8" y1="79.7" x2="87" y2="79.7"/>
    <line class="st0" x1="136.7" y1="129.1" x2="99.9" y2="144.4"/>
    <line class="st0" x1="375.3" y1="129.1" x2="412.1" y2="144.4"/>
    <line class="st0" x1="385.2" y1="79.7" x2="425" y2="79.7"/>
    <line class="st0" x1="375.3" y1="30.2" x2="412.1" y2="15"/>
    <line class="st0" x1="136.7" y1="30.2" x2="99.9" y2="15"/>
  </g>
</svg>