<svg enable-background="new 0 0 100 100" viewBox="0 0 100 100" xmlns="http://www.w3.org/2000/svg"><g id="Layer_1"/><g id="Layer_2"><g><path d="m75.352 18.68c-8.001.245-7.999 11.756 0 12 8.001-.245 7.999-11.756 0-12z"/><path d="m50 26c-13.255 0-24 10.774-24 24.064 1.264 31.92 46.74 31.911 48 0 0-13.29-10.745-24.064-24-24.064zm0 39.684c-8.604 0-15.579-6.993-15.579-15.62.821-20.72 30.341-20.714 31.158 0 0 8.626-6.975 15.62-15.579 15.62z"/><path d="m97.208 30.421c-.352-16.669-10.956-27.28-27.627-27.628-4.003-.386-35.157-.394-39.163 0-16.667.351-27.277 10.956-27.626 27.628-.386 3.998-.394 35.164 0 39.165.311 16.615 11.011 27.318 27.626 27.628 5.066.231 6.683.286 19.582.286 12.898 0 14.516-.055 19.581-.286 5.055-.231 8.508-1.034 11.529-2.208 10.587-4.229 15.76-13.637 16.098-25.42.386-4.003.393-35.16 0-39.165zm-28.017 58.244c-3.939.376-34.441.382-38.383 0-4.63-.211-7.145-.985-8.819-1.635-14.449-6.702-9.969-20.257-10.65-38.861.015-4.321-.009-13.037.001-17.358.577-12.883 6.644-18.847 19.468-19.47 3.944-.377 34.438-.382 38.383 0 12.886.577 18.844 6.644 19.468 19.469.255 3.079.44 19.888 0 28.395.475 15.978-.253 28.523-19.468 29.46z"/></g></g></svg>