<svg enable-background="new 0 0 100 100" viewBox="0 0 100 100" xmlns="http://www.w3.org/2000/svg"><g id="Layer_1"/><g id="Layer_2"><g><g><path d="m50.208 7.556c-44.085-.232-64.526 46.311-24.434 66.987-.705 2.429-4.527 15.63-4.68 16.667-.109.811.509 1.491 1.511 1.143 1.448-.203 16.78-10.973 19.434-12.843 63.573 7.609 76.091-69.034 8.169-71.954z" fill="#3d1d1c"/><g fill="#ffe812"><path d="m27.433 53.943c-.086 3.333-5.216 3.346-5.307 0v-15.763h-4.14c-3.429-.087-3.436-5.107 0-5.196h13.587c3.431.091 3.435 5.105 0 5.196h-4.14z"/><path d="m49.733 56.076c-1.191.628-3.495.475-3.895-.806 0 0-1.314-3.44-1.314-3.44h-8.091l-1.315 3.442c-.398 1.279-2.703 1.433-3.893.804-.732-.337-1.435-1.265-.629-3.768l6.347-16.705c1.299-3.426 5.766-3.441 7.073.003 0 0 6.344 16.698 6.344 16.698.807 2.508.104 3.436-.627 3.772z"/><path d="m63.143 56.09h-8.513c-1.402 0-2.543-1.091-2.543-2.432v-18.021c.091-3.492 5.324-3.503 5.417 0v15.588h5.639c3.349.083 3.356 4.78 0 4.865z"/><path d="m83.914 54.092c-.236 2.275-3.433 3.113-4.745 1.231 0 0-6.222-8.245-6.222-8.245l-.921.921v5.789c-.087 3.492-5.216 3.505-5.308.001v-18.152c.092-3.495 5.213-3.502 5.307 0v5.703l7.403-7.403c.888-.901 2.432-.707 3.298.193.901.856 1.096 2.418.195 3.298l-6.047 6.046 6.531 8.653c.425.56.608 1.268.509 1.965z"/></g><path d="m37.829 47.131h5.3l-2.65-7.529z" fill="#3d1d1c"/></g></g></g></svg>