<?xml version="1.0" encoding="UTF-8" standalone="no"?>
<!-- Created with Inkscape (http://www.inkscape.org/) -->

<svg
   version="1.1"
   id="svg9"
   xml:space="preserve"
   width="682.66669"
   height="682.66669"
   viewBox="0 0 682.66669 682.66669"
   xmlns="http://www.w3.org/2000/svg"
   xmlns:svg="http://www.w3.org/2000/svg"><defs
     id="defs13"><clipPath
       clipPathUnits="userSpaceOnUse"
       id="clipPath51"><path
         d="M 0,512 H 512 V 0 H 0 Z"
         id="path49" /></clipPath></defs><g
     id="g15"
     transform="matrix(1.3333333,0,0,-1.3333333,0,682.66667)"><g
       id="g17"
       transform="translate(414.4272,187.3311)"><path
         d="M 0,0 H -29.836"
         style="fill:none;stroke:#000000;stroke-width:30;stroke-linecap:butt;stroke-linejoin:miter;stroke-miterlimit:10;stroke-dasharray:none;stroke-opacity:1"
         id="path19" /></g><g
       id="g21"
       transform="translate(414.4272,256)"><path
         d="M 0,0 H -29.836"
         style="fill:none;stroke:#000000;stroke-width:30;stroke-linecap:butt;stroke-linejoin:miter;stroke-miterlimit:10;stroke-dasharray:none;stroke-opacity:1"
         id="path23" /></g><g
       id="g25"
       transform="translate(414.4272,324.6865)"><path
         d="M 0,0 H -29.836"
         style="fill:none;stroke:#000000;stroke-width:30;stroke-linecap:butt;stroke-linejoin:miter;stroke-miterlimit:10;stroke-dasharray:none;stroke-opacity:1"
         id="path27" /></g><g
       id="g29"
       transform="translate(97.5728,256)"><path
         d="M 0,0 H 171.2"
         style="fill:none;stroke:#000000;stroke-width:30;stroke-linecap:butt;stroke-linejoin:miter;stroke-miterlimit:10;stroke-dasharray:none;stroke-opacity:1"
         id="path31" /></g><g
       id="g33"
       transform="translate(97.5728,187.3135)"><path
         d="M 0,0 H 171.2"
         style="fill:none;stroke:#000000;stroke-width:30;stroke-linecap:butt;stroke-linejoin:miter;stroke-miterlimit:10;stroke-dasharray:none;stroke-opacity:1"
         id="path35" /></g><g
       id="g37"
       transform="translate(97.5728,324.6255)"><path
         d="M 0,0 H 171.2"
         style="fill:none;stroke:#000000;stroke-width:30;stroke-linecap:butt;stroke-linejoin:miter;stroke-miterlimit:10;stroke-dasharray:none;stroke-opacity:1"
         id="path39" /></g><g
       id="g41"
       transform="translate(325.5137,355.3232)"><path
         d="M 0,0 V -198.646"
         style="fill:none;stroke:#000000;stroke-width:30;stroke-linecap:butt;stroke-linejoin:miter;stroke-miterlimit:10;stroke-dasharray:none;stroke-opacity:1"
         id="path43" /></g><g
       id="g45"><g
         id="g47"
         clip-path="url(#clipPath51)"><g
           id="g53"
           transform="translate(457.6099,256)"><path
             d="m 0,0 c 0,23.853 16.907,43.755 39.39,48.381 v 79.961 H -97.096 l -35,-30.019 -35,30.019 H -442.61 V 48.381 c 22.484,-4.626 39.39,-24.528 39.39,-48.381 0,-23.853 -16.906,-43.755 -39.39,-48.381 v -79.961 h 275.514 l 35,28.018 35,-28.018 H 39.39 v 79.961 C 16.907,-43.755 0,-23.853 0,0 Z"
             style="fill:none;stroke:#000000;stroke-width:30;stroke-linecap:butt;stroke-linejoin:miter;stroke-miterlimit:10;stroke-dasharray:none;stroke-opacity:1"
             id="path55" /></g></g></g></g></svg>
