<svg fill="none" height="24" viewBox="0 0 25 24" width="25" xmlns="http://www.w3.org/2000/svg"><g clip-rule="evenodd" fill="rgb(0,0,0)" fill-rule="evenodd"><path d="m1.75 9c0-2.62335 2.12665-4.75 4.75-4.75h12c2.6234 0 4.75 2.12665 4.75 4.75v6c0 2.6234-2.1266 4.75-4.75 4.75h-12c-2.62335 0-4.75-2.1266-4.75-4.75zm4.75-3.25c-1.79493 0-3.25 1.45507-3.25 3.25v6c0 1.7949 1.45507 3.25 3.25 3.25h12c1.7949 0 3.25-1.4551 3.25-3.25v-6c0-1.79493-1.4551-3.25-3.25-3.25z"/><path d="m9.75 10.7662c0-1.36027 1.4839-2.20047 2.6504-1.50062l2.0563 1.23382c1.1329.6797 1.1329 2.3215 0 3.0012l-2.0563 1.2338c-1.1664.6999-2.6504-.1403-2.6504-1.5006zm1.8786-.2144c-.1666-.1-.3786.0201-.3786.2144v2.4676c0 .1943.212.3144.3786.2144l2.0564-1.2338c.1618-.0971.1618-.3317 0-.4288z"/></g></svg>