<?xml version="1.0" encoding="UTF-8"?>
<svg id="_레이어_1" data-name="레이어_1" xmlns="http://www.w3.org/2000/svg" version="1.1" viewBox="0 0 2087.9 637.6">
  <!-- Generator: Adobe Illustrator 29.8.2, SVG Export Plug-In . SVG Version: 2.1.1 Build 3)  -->
  <defs>
    <style>
      .st0 {
        fill: #fff;
      }

      .st1 {
        fill: #231f20;
      }

      .st2 {
        fill: #35d32f;
      }
    </style>
  </defs>
  <g>
    <path class="st1" d="M899.7,242h-23.8v40.8l-33.5,33.5,16.8,16.8,28.2-28.2,25.9,27.9,17.5-16.2-31.1-33.5v-41.1Z"/>
    <path class="st1" d="M943.7,258.7h-25.5v23.8h25.5v50.6h23.8v-100.7h-23.8v26.4Z"/>
    <path class="st1" d="M1210.3,258.7h-25.5v23.8h25.5v50.6h23.8v-100.7h-23.8v26.4Z"/>
    <path class="st1" d="M1343.6,333.1h23.8v-100.7h-23.8v100.7ZM1476.5,333.1h23.8v-100.7h-23.8v100.7Z"/>
    <path class="st1" d="M1647.6,260.5h-15.3v-28.1h-23.8v100.7h23.8v-48.8h15.3v48.8h23.8v-100.7h-23.8v28.1Z"/>
    <path class="st1" d="M1920,232.4v44.4h-23.7v23.8h23.7v46.6h23.8v-114.8h-23.8Z"/>
    <path class="st1" d="M1744.5,275h-23.8v36.5h-33.9v23.8h106.9v-23.8h-49.2v-36.5Z"/>
    <path class="st1" d="M1900.2,335.3v-23.8h-90.6v23.8h25.5v29h23.8v-29h41.3Z"/>
    <path class="st1" d="M1894.9,349.8h-23.8v64.3h70v-23.8h-46.2v-40.4Z"/>
    <path class="st1" d="M1762,293.5h23.8v-62.9h-83.6v23.8h59.8v39.1Z"/>
    <path class="st1" d="M1523.1,333.1h69.5v-23.8h-45.7v-25.9h45.7v-23.8h-69.5v73.5Z"/>
    <path class="st1" d="M1326.9,309.8h-49.2v-8.3h47.1v-60.3h-70.9v23.8h47.1v12.7h-47.1v55.9h73.1v-23.8Z"/>
    <path class="st1" d="M1317.2,350.3h-23.8v64.7h71.3v-23.8h-47.5v-40.9Z"/>
    <path class="st1" d="M983.7,334.4h43.1v12.3h-24.6v23.8h47.5v10.1h-48v55.9h72.2v-23.8h-48.4v-8.3h48v-57.7h-22.9v-12.3h39.6v-23.8h-106.5v23.8Z"/>
    <path class="st1" d="M1038.3,249.1c9.2,0,16.7,7.5,16.7,16.7,0,9.2-7.5,16.7-16.7,16.7-9.2,0-16.7-7.5-16.7-16.7,0-9.2,7.5-16.7,16.7-16.7M1038.3,306.3c22.4,0,40.5-18.2,40.5-40.5,0-22.4-18.2-40.5-40.5-40.5-22.4,0-40.5,18.2-40.5,40.5,0,22.4,18.2,40.5,40.5,40.5"/>
    <path class="st1" d="M1141.2,311.5c-9.2,0-16.7-7.5-16.7-16.7,0-9.2,7.5-16.7,16.7-16.7,9.2,0,16.7,7.5,16.7,16.7,0,9.2-7.5,16.7-16.7,16.7M1141.2,254.3c-22.4,0-40.5,18.2-40.5,40.5,0,22.4,18.2,40.5,40.5,40.5,22.4,0,40.5-18.2,40.5-40.5,0-22.4-18.2-40.5-40.5-40.5"/>
    <path class="st1" d="M1421.5,311.5c-9.2,0-16.7-7.5-16.7-16.7,0-9.2,7.5-16.7,16.7-16.7,9.2,0,16.7,7.5,16.7,16.7,0,9.2-7.5,16.7-16.7,16.7M1421.5,254.3c-22.4,0-40.5,18.2-40.5,40.5,0,22.4,18.2,40.5,40.5,40.5,22.4,0,40.5-18.1,40.5-40.5,0-22.4-18.2-40.5-40.5-40.5"/>
    <path class="st1" d="M1743.1,404.4c-9.2,0-16.7-7.5-16.7-16.7,0-9.2,7.5-16.7,16.7-16.7,9.2,0,16.7,7.5,16.7,16.7,0,9.2-7.5,16.7-16.7,16.7M1743.1,347.1c-22.4,0-40.5,18.2-40.5,40.5,0,22.4,18.2,40.5,40.5,40.5,22.4,0,40.5-18.2,40.5-40.5,0-22.4-18.2-40.5-40.5-40.5"/>
    <path class="st1" d="M1852.2,250c9.2,0,16.7,7.5,16.7,16.7,0,9.2-7.5,16.7-16.7,16.7-9.2,0-16.7-7.5-16.7-16.7,0-9.2,7.5-16.7,16.7-16.7M1852.2,307.2c22.4,0,40.5-18.2,40.5-40.5,0-22.4-18.2-40.5-40.5-40.5-22.4,0-40.5,18.2-40.5,40.5,0,22.4,18.2,40.5,40.5,40.5"/>
  </g>
  <g>
    <g>
      <path class="st2" d="M552.6,454.3s80.3-44.3,58.1-2c-22.2,42.3-39.8,70.7-39.8,70.7l-.7,25.8s27.4,11.9,5.9,29.7h-54.9s-10.5-.6-10.5-8.6v-27.7h-59.4v9.2s29.4,12.5,2,27.1h-54.2s-10.4,1.3-10.4-9.9v-66s3.9-27.1,31.3-27.1h104.5s-64-68,28.1-21.1"/>
      <path class="st2" d="M264.6,388.3s-50.9,19.8-32,71.3c18.9,51.5,79.7,99.1,170.5,67.4l-2.6-21.1s-59.4,7.3-68.6-52.8c0,0,1.7-40.4-24-58-9.9-6.8-26.3-13.3-43.3-6.7"/>
      <path class="st2" d="M343,359.9s-12.4-16.5,5.2-13.9c16.2,2.3,32.7,0,47.7-6.6,17.6-7.9,38.5-12.5,64.7,0,0,0-6.5,11.9-20.2,17.2-13.7,5.3,2.6,7.3,17.6-1.3,15-8.6,48.3-15.2,82.9-2.6,34.6,12.5,43.8-5.3,43.8-5.3,0,0,19.6-18.5,11.1,15.2s-54.9,67.4-130,54.1c0,0-13.1,1.3,5.9,11.9,18.9,10.6,35.9,15.2-20.2,17.8-56.2,2.6-98-45.6-108.4-86.5"/>
      <path class="st2" d="M700.9,342.1s5.2,19.8,9.1,4c3.9-15.8,7.1-43.6,20.9-43.6s30.8,42.8,11.8,102.4c-8.9,28-28.8,72.8-59.4,94.4-56.2,39.6-73.8,38.1-79.3,30.9-3-3.9-1.8-10.7.5-17,2.4-6.6,11.9-17,17.5-21.5,16.8-13.5,47.1-39.5,41.7-49.9-7.2-13.9-58.8-29.7-51.6-64.7,0,0,2-12.5,22.2-9.9,20.2,2.6,34.6,11.9,34.6,11.9,0,0-46.2-50.6-20.9-75.3,20.2-19.8,52.9,38.3,52.9,38.3"/>
      <path class="st2" d="M408.9,301.1c9.5-1.4,16.7-1.6,26.8,3.3,22.9,11.2,24.2,24.4,64,0,0,0,15.7-9.2,41.8-5.3,26.1,4,56.8,1.3,55.5-27.7-1.3-29.1-35.3-27.1-48.3-20.5s-15,2.6-9.8-8.6c0,0,17.6-33.7,0-41.6-17.6-7.9-37.2,17.2-41.1,25.1s-5.9-.7-5.9-8.6-5.2-40.9-26.1-42.9-24.8,48.9-24.8,52.2-8.5-1.3-15.7-11.9c-7.2-10.6-21.6-22.5-34.6-11.2-13.1,11.2-3.9,31.7,0,36.3,3.9,4.6,17,14.5-3.9,11.9-20.9-2.6-46.4-7.9-50.9,24.4-2.7,19.2,14.8,25.6,29.5,27.7,10.1,1.4,31.5-.7,43.7-2.6"/>
      <path class="st2" d="M435.7,178.3s-3.3-49.5,33.3-50.2c32.7-.7,30.7,47.5,30.7,47.5h56.2s15,.7,15-15.2v-19.2s30.7-12.5-2-22.5c0,0-11.8-7.3,4.6-15.9,12.3-6.4,38.7-24.4,35.3-35.7-1.2-3.8-2.6-8.6-15-8.6,0,0-24.2,12.5-50.9-21.8,0,0-5.9-17.8-18.9.7-11,15.6-40.6,2.1-43.8-3.3-5.9-9.9-12.4-14.5-25.5-.7s-37.9,9.9-47,4c-9.1-5.9-13.1-9.2-20.2,2-7.2,11.2-18.3,21.8-41.8,19.8s-22.2,2-17.6,13.9,26.8,31.7,32.7,32.4c5.9.7,5.2,9.9,3.3,11.9s-29.4,6.6,2.6,23.8v17.8s-3.3,17.8,15,17.8,54.2,1.3,54.2,1.3"/>
      <path class="st2" d="M256.8,122.2s-15.7,23.8-21.6,27.7c-5.9,4-20.2,25.1,6.5,19.8,26.8-5.3,27.4-7.3,47,1.3,19.6,8.6,28.1,16.5,43.8,2,15.7-14.5,5.9-31.7-15-33.7,0,0,31.3-18.5,16.3-34.3-15-15.9-28.1,3.3-28.1,3.3,0,0-9.8,3.3-2.6-8.6,7.2-11.9,4.6-22.5-11.8-18.5-16.3,4-34.6,40.9-34.6,40.9"/>
      <path class="st2" d="M231.9,297.8s3.3,11.2-8.5,23.8c-11.8,12.5-28.1,29.7-23.5,64.1,0,0,0,21.1,17,5.3,17-15.9,34-30.4,63.4-25.1,29.4,5.3,39.2,20.5,39.2,2.6s-30-37-46.4-42.9c0,0-2-14.5,8.5-13.2,10.4,1.3,15,5.3,21.6-4.6,1.5-2.2,2.2-5.8,2.9-6.9,2.5-3.9,1.4-1,3.6-3,2.3-2,1.6-6.3,1.6-6.3l2.3-6.3s8.5-6.3,5.2-10.2c-3.3-4-10.1-7.6-4.6-18.2,5.6-10.6,5.9-14.9,5.2-19.5,0,0,3.9-9.9,3.3-13.2s-21.6-55.1-94.1-37.3c0,0-41.8,15.9-36.6,60.1,5.2,44.3,24.8,27.7,22.2,58.8l17.6-7.9Z"/>
      <path class="st2" d="M654.2,105.3s98.6,61.4,94.7,172.1c-.4,9.9-6.9,9.8-6.9,9.8h-59.4s-24.2,2-24.2-15.5,23.8-16.2,23.8-16.2c0,0-22.9-23.8-26.8-45.6v42.6s2.9,14.9-10.1,14.9-31.4.4-34-.2c-8.8-2.1-11.4-10.4-9.1-19.9,3.6-14.5,20.2-13.2,20.2-13.2v-89.2s.3-8.3-6.5-4c-6.2,3.9-15.1,4.6-18.9-3-5.2-10.2,5.5-28.7,12.7-34.7,0,0-1.3-9.9-.7-12.5,0,0,10.1,2,11.8,4,0,0,19.9.3,22.2.7,0,0,6.5-4.3,11.1-4.3,0,0,1.3,6.9,0,14.2"/>
    </g>
    <circle class="st0" cx="547" cy="468.9" r="5.2"/>
    <circle class="st0" cx="622.7" cy="115.6" r="5"/>
  </g>
</svg>